<svg enable-background="new 0 0 1000 715.1" viewBox="0 0 1e3 715.1" xmlns="http://www.w3.org/2000/svg"><style>.st0{fill:none;stroke:#601b23;stroke-width:6;stroke-linecap:round;stroke-linejoin:round;stroke-miterlimit:10}.st1{fill:#e36535}.st2{fill:#f4a045}.st3{fill:#fff}.st4{fill:#c11a4d}.st5{fill:#cf264d}.st6{opacity:.72;fill:#a5143a;enable-background:new}.st7{opacity:.23;fill:#f4a15d;enable-background:new}.st8{opacity:.32;fill:#f4a15d;enable-background:new}.st9{opacity:.37;fill:#a5143a;enable-background:new}.st10{fill:#601b23}.st11{fill:none;stroke:#601b23;stroke-width:4;stroke-linecap:round;stroke-linejoin:round;stroke-miterlimit:10}.st12{fill:#4e8280}.st13{opacity:.32}.st14{fill:#f4a15d}.st15{fill:#37605d}.st16{opacity:.72;fill:#a5143a;stroke:#a5143a;stroke-width:6;stroke-linecap:round;stroke-linejoin:round;stroke-miterlimit:10;enable-background:new}.st17{fill:#abcfd8}.st18{opacity:.93;fill:#e2f0f2;enable-background:new}.st19{fill:#bc1d4e}.st20{opacity:.74;fill:#a5143a;enable-background:new}.st21{opacity:.53}.st22{opacity:.41;fill:#fff;enable-background:new}</style><path class="st0" d="m490.1 370.6c-9.4 1.2-16.9 14.4-18.3 25.3-.4 3.2-.6 6.3-.6 9.5.0 10.4 2.2 20.3 6.2 30.4 4 9.9 10 20 17.2 25.8 7.3-5.8 13.2-15.9 17.2-25.8 4-10.1 6.2-20 6.2-30.4.0-3.2-.2-6.3-.6-9.5-1.4-11-8.9-24.1-18.3-25.3-2.9-.3-6-.3-9 0z"/><path class="st1" d="m490.1 370.6c-9.4 1.2-16.9 14.4-18.3 25.3-.4 3.2-.6 6.3-.6 9.5.0 10.4 2.2 20.3 6.2 30.4 4 9.9 10 20 17.2 25.8 7.3-5.8 13.2-15.9 17.2-25.8 4-10.1 6.2-20 6.2-30.4.0-3.2-.2-6.3-.6-9.5-1.4-11-8.9-24.1-18.3-25.3-2.9-.3-6-.3-9 0z"/><path class="st2" d="m536.6 433.3c0 18.6-3.9 36.4-11.1 54.5-.2.6-.5 1.2-.8 1.9-7.2 17.2-17.5 34.4-30 44.5-12.9-10.4-23.4-28.3-30.7-46-.1-.1-.1-.2-.2-.4-7.2-18.1-11.1-35.9-11.1-54.5.0-5.7.4-11.3 1.1-17.1 2.4-19.4 15.6-42.8 32.1-45.3.2.0.4-.1.6-.1 5.2-.6 10.5-.6 15.7-.1.2.0.5.0.7.1 16.8 2.1 30.3 25.8 32.7 45.4.6 5.8 1 11.4 1 17.1z"/><path class="st0" d="m536.6 433.3c0 18.6-3.9 36.4-11.1 54.5-.2.6-.5 1.2-.8 1.9-7.2 17.2-17.5 34.4-30 44.5-12.9-10.4-23.4-28.3-30.7-46-.1-.1-.1-.2-.2-.4-7.2-18.1-11.1-35.9-11.1-54.5.0-5.7.4-11.3 1.1-17.1 2.4-19.4 15.6-42.8 32.1-45.3.2.0.4-.1.6-.1 5.2-.6 10.5-.6 15.7-.1.2.0.5.0.7.1 16.8 2.1 30.3 25.8 32.7 45.4.6 5.8 1 11.4 1 17.1z"/><path class="st3" d="m1e3 536.3c-15.2 4.5-27.6 15.6-33.8 30-12-4.3-25-6.7-38.5-6.7-40 0-75.2 20.6-95.6 51.7-10.6-5-22.4-7.7-34.9-7.7-5.5.0-10.8.5-15.9 1.6v-1.6c0-25.5-18-46.8-41.9-51.9-9.2-31.5-38.2-54.6-72.7-54.6-28.7.0-53.7 16-66.5 39.5-8.9-8.3-20.8-13.5-33.9-13.5-7.5.0-14.6 1.7-21 4.6-7.8-12.1-14.7-24.8-20.6-38.2-14.6-33-22.7-69.8-22.7-108.4.0-3.5.1-6.9.2-10.4 1.7-44.7 14.2-86.6 35.1-123.2h-86.5c20.9 36.6 33.4 78.6 35.1 123.3.1 3.4.2 6.8.2 10.2.0 38-7.9 74.3-22.1 107.1-9.3 21.4-21.2 41.4-35.5 59.5-12.1-15-30.6-24.5-51.3-24.5-20.8.0-39.3 9.6-51.4 24.6-9.7-5.7-20.9-9-33-9-19.4.0-36.9 8.6-48.8 22.1-17.6-26.1-47.4-43.3-81.2-43.3-54 0-97.8 43.8-97.8 97.8v.9c-36.6 18.6-62.3 55.6-64.8 98.9H1e3V536.3z"/><path class="st4" d="m374 217.9-32.6 12.7v-61.9l100.1-78.1v117.1l-24.2 12.7c-12.9-6.8-28.6-8.2-43.3-2.5z"/><path class="st5" d="m330.8 246.8c-10.2-14.8-16.1-32.3-16.1-51 0-23.7 9.3-45.4 24.8-62.1 15.5 16.7 24.9 38.4 25 62.1.0 18.8-5.9 36.2-16 51h-17.7z"/><path class="st6" d="m341.4 230.6 32.4-12.6c.4-8.6-.2-17.4-1.8-26.2-2.4-13.2-6.9-25.6-13.1-36.8l-17.5 13.7v61.9z"/><path class="st7" d="M345.6 186l96-74.8V90.6L341.4 168.6v62L345.6 229z"/><path class="st6" d="m401.7 215.1c5.5.9 10.7 2.7 15.6 5.3l24.2-12.7v-117.1l-42.2 32.9c-2.1 12.7-3.1 26-3.1 39.7.1 18.1 2 35.6 5.5 51.9z"/><path class="st0" d="m374 217.9-32.6 12.7v-61.9l100.1-78.1v117.1l-24.2 12.7c-12.9-6.8-28.6-8.2-43.3-2.5z"/><path class="st5" d="m330.8 246.8c-10.2-14.8-16.1-32.3-16.1-51 0-23.7 9.3-45.4 24.8-62.1 15.5 16.7 24.9 38.4 25 62.1.0 18.8-5.9 36.2-16 51h-17.7z"/><path class="st7" d="m338 133.7c1.2 1.3 2.4 2.7 3.5 4.1-10.4 16-16.4 34.8-16.5 54.8.0 19.8 3 38.3 13.2 54.3H329c-10.1-14.8-16-32.3-16-51 .1-23.8 9.5-45.5 25-62.2z"/><path class="st8" d="m338 133.7c.4.4.8.9 1.2 1.4-11.7 17.3-18.4 37.6-18.5 59.4.0 18.9 5.1 36.7 14 52.4H329c-10.1-14.8-16-32.3-16-51 .1-23.8 9.5-45.5 25-62.2z"/><path class="st9" d="m364.5 195.8c0-23.7-9.4-45.3-25-62.1-1.2 1.3-2.4 2.7-3.5 4.1 10.4 16 16.4 34.8 16.5 54.8.0 19.8-5.8 38.3-16 54.3h12c10.1-14.9 16-32.4 16-51.1z"/><path class="st6" d="m364.5 195.8c0-23.7-9.4-45.3-25-62.1-.4.4-.8.9-1.2 1.4 11.7 17.3 18.4 37.6 18.5 59.4.0 18.9-5.1 36.7-14 52.4h5.7c10.1-14.9 16-32.4 16-51.1z"/><path class="st9" d="m339.5 133.7c-1.2 1.3-2.4 2.7-3.5 4.1 10.4 16 16.4 34.8 16.5 54.8.0 19.8-5.8 38.3-16 54.3h12c10.1-14.8 16-32.3 16-51-.1-23.8-9.5-45.5-25-62.2z"/><path class="st6" d="m339.5 133.7c-.4.4-.8.9-1.2 1.4 11.7 17.3 18.4 37.6 18.5 59.4.0 18.9-5.1 36.7-14 52.4h5.7c10.1-14.8 16-32.3 16-51-.1-23.8-9.5-45.5-25-62.2z"/><path class="st10" d="m350.9 151.7c-3.7-6.5-8.1-12.5-13.2-18.1-5.1 5.5-9.5 11.6-13.2 18.1h26.4z"/><path class="st0" d="m330.8 246.8c-10.2-14.8-16.1-32.3-16.1-51 0-23.7 9.3-45.4 24.8-62.1 15.5 16.7 24.9 38.4 25 62.1.0 18.8-5.9 36.2-16 51h-17.7z"/><path class="st5" d="m460.7 324s-12.1 2.6-29.5 20c-6.3 6.3-16.2 19.1-23.5 28.8-3 4-9.4 2-9.5-3l-2.4-106.5c-.5-3 .3-6.1 2.2-8.4l26.2-32.6L460.7 324z"/><path class="st8" d="m398 371.9c5.7-.8 10-5.7 10.1-11.5l1.1-99c-.5-3 .3-6.1 2.2-8.4l16.4-20.5-3.7-10.2-26.1 32.5c-1.9 2.4-2.7 5.4-2.2 8.4l2.2 108.7z"/><path class="st6" d="m460.7 324-36.5-101.7-14.5 18.1c7.8 30 20.1 60.5 36.7 90.9 8.8-6.1 14.3-7.3 14.3-7.3z"/><path class="st0" d="m460.7 324s-12.1 2.6-29.5 20c-6.3 6.3-16.2 19.1-23.5 28.8-3 4-9.4 2-9.5-3l-2.4-106.5c-.5-3 .3-6.1 2.2-8.4l26.2-32.6L460.7 324z"/><path class="st11" d="M321.3 233.6H354.2z"/><path class="st5" d="m330.8 246.8c-10.2-14.8-16.1-32.3-16.1-51 0-23.7 9.3-45.4 24.8-62.1 15.5 16.7 24.9 38.4 25 62.1.0 18.8-5.9 36.2-16 51h-17.7z"/><path class="st5" d="m330.8 246.8c-10.2-14.8-16.1-32.3-16.1-51 0-23.7 9.3-45.4 24.8-62.1 15.5 16.7 24.9 38.4 25 62.1.0 18.8-5.9 36.2-16 51h-17.7z"/><path class="st7" d="m338 133.7c1.2 1.3 2.4 2.7 3.5 4.1-10.4 16-16.4 34.8-16.5 54.8.0 19.8 3 38.3 13.2 54.3H329c-10.1-14.8-16-32.3-16-51 .1-23.8 9.5-45.5 25-62.2z"/><path class="st8" d="m338 133.7c.4.4.8.9 1.2 1.4-11.7 17.3-18.4 37.6-18.5 59.4.0 18.9 5.1 36.7 14 52.4H329c-10.1-14.8-16-32.3-16-51 .1-23.8 9.5-45.5 25-62.2z"/><path class="st9" d="m364.5 195.8c0-23.7-9.4-45.3-25-62.1-1.2 1.3-2.4 2.7-3.5 4.1 10.4 16 16.4 34.8 16.5 54.8.0 19.8-5.8 38.3-16 54.3h12c10.1-14.9 16-32.4 16-51.1z"/><path class="st6" d="m364.5 195.8c0-23.7-9.4-45.3-25-62.1-.4.4-.8.9-1.2 1.4 11.7 17.3 18.4 37.6 18.5 59.4.0 18.9-5.1 36.7-14 52.4h5.7c10.1-14.9 16-32.4 16-51.1z"/><path class="st9" d="m339.5 133.7c-1.2 1.3-2.4 2.7-3.5 4.1 10.4 16 16.4 34.8 16.5 54.8.0 19.8-5.8 38.3-16 54.3h12c10.1-14.8 16-32.3 16-51-.1-23.8-9.5-45.5-25-62.2z"/><path class="st6" d="m339.5 133.7c-.4.4-.8.9-1.2 1.4 11.7 17.3 18.4 37.6 18.5 59.4.0 18.9-5.1 36.7-14 52.4h5.7c10.1-14.8 16-32.3 16-51-.1-23.8-9.5-45.5-25-62.2z"/><path class="st10" d="m352.7 151.7c-3.7-6.5-8.1-12.5-13.2-18.1-5.1 5.5-9.5 11.6-13.2 18.1h26.4z"/><path class="st0" d="m330.8 246.8c-10.2-14.8-16.1-32.3-16.1-51 0-23.7 9.3-45.4 24.8-62.1 15.5 16.7 24.9 38.4 25 62.1.0 18.8-5.9 36.2-16 51h-17.7z"/><path class="st11" d="M321.3 233.6H354.2z"/><path class="st4" d="m609.5 217.9 32.6 12.7v-61.9L542 90.6v117.1l24.2 12.7c12.9-6.8 28.6-8.2 43.3-2.5z"/><path class="st6" d="m642.1 230.6-32.4-12.6c-.4-8.6.2-17.4 1.8-26.2 2.4-13.2 6.9-25.6 13.1-36.8l17.5 13.7v61.9z"/><path class="st7" d="M638 186l-96-74.8V90.6L642.1 168.6v62L638 229z"/><path class="st6" d="m581.8 215.1c-5.5.9-10.7 2.7-15.6 5.3l-24.2-12.7v-117.1l42.2 32.9c2.1 12.7 3.1 26 3.1 39.7.0 18.1-1.9 35.6-5.5 51.9z"/><path class="st0" d="m609.5 217.9 32.6 12.7v-61.9L542 90.6v117.1l24.2 12.7c12.9-6.8 28.6-8.2 43.3-2.5z"/><path class="st5" d="m522.9 324s12.1 2.6 29.5 20c6.3 6.3 16.2 19.1 23.5 28.8 3 4 9.4 2 9.5-3l2.4-106.5c.5-3-.3-6.1-2.2-8.4l-26.2-32.6-36.5 101.7z"/><path class="st6" d="m585.5 371.9c-5.7-.8-10-5.7-10.1-11.5l-1.1-99c.5-3-.3-6.1-2.2-8.4l-16.4-20.5 3.7-10.2 26.2 32.6c1.9 2.4 2.7 5.4 2.2 8.4l-2.3 108.6z"/><path class="st6" d="m522.9 324 36.5-101.7 14.5 18.1c-7.8 30-20.1 60.5-36.7 90.9-8.8-6.1-14.3-7.3-14.3-7.3z"/><path class="st0" d="m522.9 324s12.1 2.6 29.5 20c6.3 6.3 16.2 19.1 23.5 28.8 3 4 9.4 2 9.5-3l2.4-106.5c.5-3-.3-6.1-2.2-8.4l-26.2-32.6-36.5 101.7z"/><path class="st12" d="m522.4 381.2c1.1-11.9-.5-23.1-20.5-52.6-3.3-4.7-11.2-4.7-14.5.0-20 29.6-21.6 40.8-20.5 52.6.2 1.5 2.9 3.2 4.6 2.6 11.5-5.9 34.8-5.9 46.3.0 1.7.6 4.4-1 4.6-2.6z"/><g class="st13"><path class="st14" d="m477 381.2c-1.1-11.9.5-23.1 20.5-52.6.6-.9 1.4-1.6 2.2-2.1-3.8-2.5-9.6-1.8-12.3 2.1-20 29.6-21.6 40.8-20.5 52.6.2 1.5 2.9 3.2 4.6 2.6 1.7-.8 3.6-1.6 5.6-2.2.0-.1-.1-.2-.1-.4z"/><path class="st14" d="m499.7 379.6c6.9.5 13.4 1.9 18.1 4.2 1.5.6 3.9-.8 4.5-2.2-6.6-1.9-14.8-2.6-22.6-2z"/></g><path class="st15" d="m490.9 328.6c-.3-.4-.6-.7-.9-1 3.7-3.7 10.6-3.3 13.6 1 20 29.6 21.6 40.8 20.5 52.6-.2 1.5-2.9 3.2-4.6 2.6-2.3-1.2-5.1-2.1-8.1-2.8 1.1-11.8-.6-23-20.5-52.4z"/><path class="st0" d="m522.4 381.2c1.1-11.9-.5-23.1-20.5-52.6-3.3-4.7-11.2-4.7-14.5.0-20 29.6-21.6 40.8-20.5 52.6.2 1.5 2.9 3.2 4.6 2.6 11.5-5.9 34.8-5.9 46.3.0 1.7.6 4.4-1 4.6-2.6z"/><path class="st5" d="m517.2 345.3c47.1-77.1 64.2-152.8 53.6-215.9-9.2-54.8-38.8-94.3-76.2-119-37.4 24.7-67 64.2-76.2 119-10.6 63.1 6.6 138.8 53.6 215.9h45.2z"/><path class="st7" d="m454.2 130.5c6-49.6 21.6-89 42.6-118.5-.7-.5-1.5-1-2.2-1.5-37.4 24.7-67 64.2-76.2 119-10.6 63.1 6.6 138.8 53.6 215.9h9.5c-26.1-77.1-34.9-151.2-27.3-214.9z"/><path class="st9" d="m570.8 129.4c-9.1-54.4-38.3-93.7-75.4-118.4 6.9 11.1 15.7 27.1 23.1 47.4 13.5 36.9 15 67.3 15.8 86.4 3.6 85.9-29.3 180.9-36.2 200.6h19.1c47.1-77.2 64.2-152.9 53.6-216z"/><path class="st6" d="m570.8 129.4c-9.2-54.8-38.8-94.3-76.2-119-1 .6-1.9 1.3-2.9 1.9 14.2 11.1 25 23 33.2 34.4 73.6 102.4 3 255.7-6.7 276-.4-13.8-2.2-30.9-7.3-50-3.3-12.2-7.3-22.9-11.3-32l-4.5 101.7h12.4c-.3 1-.6 1.9-1 2.9h10.5c47.3-77.1 64.4-152.8 53.8-215.9z"/><path class="st8" d="m431 146.8c1.4-16 6.6-68 38.7-110.7 5.1-6.7 12.7-15.8 12.1-16.3-.9-.8-18.5 15.1-31 32-15.7 21.1-27.2 47-32.3 77.6-10.6 63.1 6.6 138.8 53.6 215.9h4.1c-12.9-25.7-21.4-48.9-27.2-67.2-3.8-12.3-10.5-34.1-14.7-63.3-2.7-19.6-5.7-40.6-3.3-68z"/><circle class="st16" cx="500" cy="140.2" r="27.2"/><path class="st0" d="m517.2 345.3c47.1-77.1 64.2-152.8 53.6-215.9-9.2-54.8-38.8-94.3-76.2-119-37.4 24.7-67 64.2-76.2 119-10.6 63.1 6.6 138.8 53.6 215.9h45.2z"/><ellipse class="st17" transform="matrix(.1602 -.9871 .9871 .1602 281.12 602.44)" cx="494.6" cy="136" rx="27.2" ry="27.2"/><circle class="st18" cx="490.9" cy="134.5" r="16.4"/><ellipse class="st0" transform="matrix(.1602 -.9871 .9871 .1602 281.12 602.44)" cx="494.6" cy="136" rx="27.2" ry="27.2"/><path class="st10" d="m456.2 44.9c24.9-8.6 52.2-8.6 77.1.1-11.3-13.7-24.4-25.2-38.6-34.6-14.2 9.4-27.3 20.9-38.5 34.5z"/><path class="st0" d="m456.2 44.9c24.9-8.6 52.2-8.6 77.1.1-11.3-13.7-24.4-25.2-38.6-34.6-14.2 9.4-27.3 20.9-38.5 34.5z"/><path class="st19" d="m494.6 392.1c1.1.0 2-1.2 2.1-2.8l7.5-122.4c.8-12.6-3.2-24.3-9.1-27.1-.4-.2-.8-.2-1.1.0-5.9 2.7-9.9 14.4-9.1 27.1l7.5 122.4c.2 1.6 1.2 2.8 2.2 2.8z"/><path class="st20" d="m494.6 392.1c1.1.0 2-1.2 2.1-2.8l7.5-122.4c.8-12.6-3.2-24.3-9.1-27.1-.4-.2-.8-.2-1.1.0-5.9 2.7-9.9 14.4-9.1 27.1l7.5 122.4c.2 1.6 1.2 2.8 2.2 2.8z"/><g class="st21"><path class="st14" d="m494.1 239.8c-5.9 2.7-9.9 14.4-9.1 27.1l7.5 122.4c.1 1.3.7 2.4 1.5 2.7v-152.2h.1z"/><path class="st14" d="m494.1 239.8h1.1c-.4-.2-.8-.2-1.1.0z"/></g><path class="st0" d="m494.6 392.1c1.1.0 2-1.2 2.1-2.8l7.5-122.4c.8-12.6-3.2-24.3-9.1-27.1-.4-.2-.8-.2-1.1.0-5.9 2.7-9.9 14.4-9.1 27.1l7.5 122.4c.2 1.6 1.2 2.8 2.2 2.8z"/><path class="st5" d="m641.4 246.8c-10.2-14.8-16.1-32.3-16.1-51 0-23.7 9.3-45.4 24.8-62.1 15.5 16.7 24.9 38.4 25 62.1.0 18.8-5.9 36.2-16 51h-17.7z"/><path class="st5" d="m641.4 246.8c-10.2-14.8-16.1-32.3-16.1-51 0-23.7 9.3-45.4 24.8-62.1 15.5 16.7 24.9 38.4 25 62.1.0 18.8-5.9 36.2-16 51h-17.7z"/><path class="st7" d="m648.7 133.7c1.2 1.3 2.4 2.7 3.5 4.1-10.4 16-16.4 34.8-16.5 54.8.0 19.8 3 38.3 13.2 54.3h-9.2c-10.1-14.8-16-32.3-16-51 0-23.8 9.4-45.5 25-62.2z"/><path class="st8" d="m648.7 133.7c.4.4.8.9 1.2 1.4-11.7 17.3-18.4 37.6-18.5 59.4.0 18.9 5.1 36.7 14 52.4h-5.7c-10.1-14.8-16-32.3-16-51 0-23.8 9.4-45.5 25-62.2z"/><path class="st9" d="m675.1 195.8c0-23.7-9.4-45.3-25-62.1-1.2 1.3-2.4 2.7-3.5 4.1 10.4 16 16.4 34.8 16.5 54.8.0 19.8-5.8 38.3-16 54.3h12c10.1-14.9 16-32.4 16-51.1z"/><path class="st6" d="m675.1 195.8c0-23.7-9.4-45.3-25-62.1-.4.4-.8.9-1.2 1.4 11.7 17.3 18.4 37.6 18.5 59.4.0 18.9-5.1 36.7-14 52.4h5.7c10.1-14.9 16-32.4 16-51.1z"/><path class="st9" d="m650.1 133.7c-1.2 1.3-2.4 2.7-3.5 4.1 10.4 16 16.4 34.8 16.5 54.8.0 19.8-5.8 38.3-16 54.3h12c10.1-14.8 16-32.3 16-51 0-23.8-9.4-45.5-25-62.2z"/><path class="st6" d="m650.1 133.7c-.4.4-.8.9-1.2 1.4 11.7 17.3 18.4 37.6 18.5 59.4.0 18.9-5.1 36.7-14 52.4h5.7c10.1-14.8 16-32.3 16-51 0-23.8-9.4-45.5-25-62.2z"/><path class="st10" d="m663.4 151.7c-3.7-6.5-8.1-12.5-13.2-18.1-5.1 5.5-9.5 11.6-13.2 18.1h26.4z"/><path class="st0" d="m641.4 246.8c-10.2-14.8-16.1-32.3-16.1-51 0-23.7 9.3-45.4 24.8-62.1 15.5 16.7 24.9 38.4 25 62.1.0 18.8-5.9 36.2-16 51h-17.7z"/><path class="st11" d="M633.8 233.6H666.7z"/><path class="st22" d="m463.8 41.5s6.8-10.7 29.9-28.7c-10.7 14.5-12.8 23.6-13.5 24.3-6.8 1.3-16.4 4.4-16.4 4.4z"/></svg>