<?xml version="1.0" encoding="UTF-8"?>
<svg enable-background="new 0 0 755 519" version="1.1" viewBox="0 0 755 519" xml:space="preserve" xmlns="http://www.w3.org/2000/svg">
<style type="text/css">
	.st0{fill:#ECF9FF;}
	.st1{fill:#FFFFFF;}
	.st2{fill:#F5A623;}
	.st3{fill:#F5969C;}
	
		.st4{opacity:0.18;fill:#282828;stroke:#282828;stroke-width:6;stroke-linecap:round;stroke-linejoin:round;stroke-miterlimit:10;enable-background:new    ;}
	.st5{fill:#DF747C;}
	.st6{fill:none;stroke:#2D255E;stroke-width:6;stroke-linecap:round;stroke-linejoin:round;stroke-miterlimit:10;}
	.st7{fill:#66CDFD;}
	.st8{fill:#3297D9;}
	.st9{opacity:0.3;fill:#FFFFFF;enable-background:new    ;}
	.st10{fill:#D49D7F;}
	.st11{fill:#DB6B7B;}
	.st12{fill:#CE5569;}
	.st13{fill:#2D255E;}
	.st14{fill:#D68821;}
	.st15{fill:#D6D6D6;}
	.st16{fill:#14A56A;}
	.st17{fill:#12B075;}
	.st18{fill:#69351F;}
	.st19{fill:#632D1B;}
	.st20{fill:#562314;}
	.st21{fill:#E8E8E8;}
	.st22{fill:none;stroke:#2D255E;stroke-width:2.9998;stroke-linecap:round;stroke-linejoin:round;stroke-miterlimit:9.999;}
	.st23{fill:#D3D3D3;}
	.st24{fill:none;stroke:#2D255E;stroke-width:2;stroke-linecap:round;stroke-linejoin:round;stroke-miterlimit:10;}
	
		.st25{opacity:0.38;fill:none;stroke:#006837;stroke-width:6;stroke-linecap:round;stroke-linejoin:round;stroke-miterlimit:10;enable-background:new    ;}
	.st26{fill:none;stroke:#39D188;stroke-width:6;stroke-linecap:round;stroke-linejoin:round;stroke-miterlimit:10;}
	.st27{fill:none;stroke:#2D255E;stroke-width:8;stroke-linecap:round;stroke-linejoin:round;stroke-miterlimit:10;}
</style>
<path class="st0" d="m715.9 37.8c-4.7 0-9 1.7-12.3 4.4-5.8-13.9-19.5-23.7-35.6-23.7-21.3 0-38.5 17.3-38.5 38.5h105.7c0-10.6-8.6-19.2-19.3-19.2z"/>
<path class="st0" d="m132.8 109.2c-2.9 0-5.6 0.7-7.9 2-5-8.2-14-13.7-24.3-13.7-5 0-9.8 1.3-13.9 3.6-7.9-11.5-21.1-19.1-36.2-19.1-24.2 0-43.8 19.6-43.8 43.8h142.8c0-9.2-7.5-16.6-16.7-16.6z"/>

	
		<polygon class="st1" points="665.9 167.9 607.9 167.9 590.8 71.9 643.9 71.9"/>
	


	
		<polygon class="st2" points="607.9 167.9 549.9 167.9 537.7 71.9 590.8 71.9"/>
	


	
		<polygon class="st1" points="549.9 167.9 491.9 167.9 484.6 71.9 537.7 71.9"/>
	


	
		<polygon class="st2" points="491.9 167.9 433.9 167.9 431.5 71.9 484.6 71.9"/>
	


	
		<polygon class="st1" points="433.9 167.9 375.9 167.9 378.4 71.9 431.5 71.9"/>
	


	
		<polygon class="st2" points="375.9 167.9 317.9 167.9 325.3 71.9 378.4 71.9"/>
	


	
		<polygon class="st1" points="317.9 167.9 259.9 167.9 272.1 71.9 325.3 71.9"/>
	


	
		<polygon class="st2" points="259.9 167.9 201.9 167.9 219 71.9 272.1 71.9"/>
	


	
		<polygon class="st1" points="201.9 167.9 143.9 167.9 165.9 71.9 219 71.9"/>
	

<rect class="st3" x="165.9" y="204.3" width="169" height="236"/>
<rect class="st4" x="192.4" y="392.3" width="116" height="6.1"/>
<rect class="st5" x="301.5" y="263.4" width="25.3" height="11.7"/>
<rect class="st5" x="165.9" y="243" width="16.9" height="11.7"/>
<rect class="st5" x="318.8" y="278.1" width="18" height="11.7"/>
<rect class="st5" x="320.5" y="402.4" width="12.7" height="11.7"/>
<rect class="st5" x="210.5" y="402.4" width="25.3" height="11.7"/>
<rect class="st5" x="196.5" y="417.1" width="25.3" height="11.7"/>
<rect class="st6" x="165.9" y="204.3" width="170" height="236"/>
<rect class="st7" x="198.4" y="212.3" width="104" height="172"/>
<path class="st8" d="m265.4 374.5h-38.3c-1.5 0-2.7-1.2-2.7-2.7v-1.2c0-1.5 1.2-2.7 2.7-2.7h38.3c1.5 0 2.7 1.2 2.7 2.7v1.2c0.1 1.5-1.2 2.7-2.7 2.7z"/>
<rect class="st8" x="238.2" y="373.3" width="16.3" height="11.8"/>
<path class="st8" d="m283.4 385.4h-8v-37.8c0-2.2 1.8-4 4-4s4 1.8 4 4v37.8z"/>
<path class="st8" d="m218.3 385.4h-8v-37.8c0-2.2 1.8-4 4-4s4 1.8 4 4v37.8z"/>
<polygon class="st9" points="298.6 384.3 302.4 378.9 302.4 306.4 247.9 384.3"/>
<polygon class="st9" points="241 384.3 302.4 296.8 302.4 280.3 229.6 384.3"/>
<polygon class="st9" points="220.6 384.3 302.4 267.5 302.4 259.3 214.9 384.3"/>
<rect class="st6" x="198.4" y="212.3" width="104" height="172"/>
<rect class="st10" x="192.4" y="384.3" width="116" height="12"/>
<rect class="st6" x="192.4" y="384.3" width="116" height="12"/>
<rect class="st10" x="335.9" y="207.7" width="138" height="292.6"/>
<rect class="st6" x="335.9" y="207.7" width="138" height="292.6"/>
<rect class="st7" x="350.9" y="224.1" width="108" height="202.7"/>
<polygon class="st9" points="459.9 427.8 459.9 331.4 404.3 427.8"/>
<polygon class="st9" points="397.7 426.8 458.9 320.8 458.9 287.6 378.6 426.8"/>
<polygon class="st9" points="369.7 426.8 458.9 272.3 458.9 261.4 363.5 426.8"/>
<rect class="st6" x="350.9" y="224.1" width="108" height="202.7"/>
<rect class="st11" x="146.9" y="440.3" width="196.8" height="60"/>
<rect class="st12" x="146.9" y="440.3" width="8.4" height="60"/>
<rect class="st12" x="337" y="440.3" width="4.9" height="60"/>
<rect class="st6" x="146.9" y="440.3" width="196.8" height="60"/>
<rect class="st3" x="474.4" y="204.4" width="169" height="236"/>
<rect class="st5" x="604.2" y="417.1" width="25.3" height="11.7"/>
<rect class="st5" x="474.3" y="417.1" width="25.3" height="11.7"/>
<rect class="st5" x="589" y="402.4" width="25.3" height="11.7"/>
<rect class="st5" x="491.9" y="237.9" width="15.5" height="11.7"/>
<rect class="st5" x="473.3" y="351.3" width="15.5" height="11.7"/>
<rect class="st6" x="473.4" y="204.4" width="170" height="236"/>
<rect class="st7" x="506.8" y="212.3" width="104" height="172"/>
<path class="st8" d="m543.8 374.5h38.3c1.5 0 2.7-1.2 2.7-2.7v-1.2c0-1.5-1.2-2.7-2.7-2.7h-38.3c-1.5 0-2.7 1.2-2.7 2.7v1.2c0 1.5 1.2 2.7 2.7 2.7z"/>
<rect class="st8" x="554.8" y="373.3" width="16.3" height="11.8"/>
<path class="st8" d="m525.9 385.4h8v-37.8c0-2.2-1.8-4-4-4s-4 1.8-4 4v37.8z"/>
<path class="st8" d="m590.9 385.4h8v-37.8c0-2.2-1.8-4-4-4s-4 1.8-4 4v37.8z"/>
<polygon class="st9" points="607.1 384.3 610.8 378.9 610.8 306.4 556.3 384.3"/>
<polygon class="st9" points="549.5 384.3 610.8 296.8 610.8 280.3 538 384.3"/>
<polygon class="st9" points="529 384.3 610.8 267.5 610.8 259.3 523.3 384.3"/>
<rect class="st6" x="506.8" y="212.3" width="104" height="172"/>
<rect class="st4" x="500.8" y="392.3" width="116" height="6.1"/>
<rect class="st10" x="500.9" y="384.3" width="116" height="12"/>
<rect class="st6" x="500.9" y="384.3" width="116" height="12"/>
<rect class="st11" x="467.1" y="440.4" width="195.2" height="60"/>
<rect class="st12" x="467.2" y="440.3" width="7.2" height="60"/>
<rect class="st6" x="467.1" y="440.4" width="195.2" height="60"/>
<path class="st13" d="m370.3 366.1c-2.5 0-4.5-2-4.5-4.5v-48.3c0-2.5 2-4.5 4.5-4.5s4.5 2 4.5 4.5v48.3c0 2.5-2 4.5-4.5 4.5z"/>
<path class="st4" d="m607.9 173.9h-442v61.1c2.2 0.6 4.6 0.9 7 0.9 16 0 29-13 29-29 0 16 13 29 29 29s29-13 29-29c0 16 13 29 29 29s29-13 29-29c0 16 13 29 29 29s29-13 29-29c0 16 13 29 29 29s29-13 29-29c0 16 13 29 29 29s29-13 29-29c0 16 13 29 29 29s29-13 29-29c0 16 13 29 29 29s29-13 29-29c0 16 13 29 29 29 2.2 0 4.4-0.3 6.4-0.7v-61.3h-35.4z"/>

	<path class="st14" d="m578.9 229.9c-16 0-29-13-29-29v-33h58v33c0 16-13 29-29 29z"/>


	<path class="st15" d="m520.9 229.9c-16 0-29-13-29-29v-33h58v33c0 16-13 29-29 29z"/>


	<path class="st14" d="m462.9 229.9c-16 0-29-13-29-29v-33h58v33c0 16-13 29-29 29z"/>


	<path class="st15" d="m404.9 229.9c-16 0-29-13-29-29v-33h58v33c0 16-13 29-29 29z"/>


	<path class="st14" d="m346.9 229.9c-16 0-29-13-29-29v-33h58v33c0 16-13 29-29 29z"/>


	<path class="st15" d="m288.9 229.9c-16 0-29-13-29-29v-33h58v33c0 16-13 29-29 29z"/>


	<path class="st14" d="m230.9 229.9c-16 0-29-13-29-29v-33h58v33c0 16-13 29-29 29z"/>


	<path class="st15" d="m172.9 229.9c-16 0-29-13-29-29v-33h58v33c0 16-13 29-29 29z"/>


	<path class="st6" d="m578.9 229.9c-16 0-29-13-29-29v-33h58v33c0 16-13 29-29 29z"/>


	<path class="st6" d="m520.9 229.9c-16 0-29-13-29-29v-33h58v33c0 16-13 29-29 29z"/>


	<path class="st6" d="m462.9 229.9c-16 0-29-13-29-29v-33h58v33c0 16-13 29-29 29z"/>


	<path class="st6" d="m404.9 229.9c-16 0-29-13-29-29v-33h58v33c0 16-13 29-29 29z"/>


	<path class="st6" d="m346.9 229.9c-16 0-29-13-29-29v-33h58v33c0 16-13 29-29 29z"/>


	<path class="st6" d="m288.9 229.9c-16 0-29-13-29-29v-33h58v33c0 16-13 29-29 29z"/>


	<path class="st6" d="m230.9 229.9c-16 0-29-13-29-29v-33h58v33c0 16-13 29-29 29z"/>


	<path class="st6" d="m172.9 229.9c-16 0-29-13-29-29v-33h58v33c0 16-13 29-29 29z"/>


	<polygon class="st6" points="665.9 167.9 607.9 167.9 590.8 71.9 643.9 71.9"/>


	<polygon class="st6" points="607.9 167.9 549.9 167.9 537.7 71.9 590.8 71.9"/>


	<polygon class="st6" points="549.9 167.9 491.9 167.9 484.6 71.9 537.7 71.9"/>


	<polygon class="st6" points="491.9 167.9 433.9 167.9 431.5 71.9 484.6 71.9"/>


	<polygon class="st6" points="433.9 167.9 375.9 167.9 378.4 71.9 431.5 71.9"/>


	<polygon class="st6" points="375.9 167.9 317.9 167.9 325.3 71.9 378.4 71.9"/>


	<polygon class="st6" points="317.9 167.9 259.9 167.9 272.1 71.9 325.3 71.9"/>


	<polygon class="st6" points="259.9 167.9 201.9 167.9 219 71.9 272.1 71.9"/>


	<polygon class="st6" points="201.9 167.9 143.9 167.9 165.9 71.9 219 71.9"/>

<rect class="st11" x="165.9" y="53.9" width="478" height="18"/>
<rect class="st3" x="165.9" y="53.9" width="478" height="6.2"/>
<rect class="st6" x="165.9" y="53.9" width="478" height="18"/>
<line class="st6" x1="95.4" x2="95.4" y1="385.1" y2="442.1"/>
<path class="st16" d="m114.2 386.9h-6c-11.8 0-21.4-9.6-21.4-21.4v-49.2c0-11.8 9.6-21.4 21.4-21.4h6c11.8 0 21.4 9.6 21.4 21.4v49.2c0.1 11.8-9.5 21.4-21.4 21.4z"/>
<path class="st6" d="m114.2 386.9h-6c-11.8 0-21.4-9.6-21.4-21.4v-49.2c0-11.8 9.6-21.4 21.4-21.4h6c11.8 0 21.4 9.6 21.4 21.4v49.2c0.1 11.8-9.5 21.4-21.4 21.4z"/>
<polyline class="st6" points="79.2 405 82.2 420.3 95.4 425.3"/>
<path class="st17" d="m72.9 407.5c-9.7 0-17.6-7.9-17.6-17.6v-26.1c0-9.7 7.9-17.6 17.6-17.6s17.6 7.9 17.6 17.6v26.1c0 9.7-7.9 17.6-17.6 17.6z"/>
<path class="st6" d="m72.9 407.5c-9.7 0-17.6-7.9-17.6-17.6v-26.1c0-9.7 7.9-17.6 17.6-17.6s17.6 7.9 17.6 17.6v26.1c0 9.7-7.9 17.6-17.6 17.6z"/>
<polygon class="st18" points="118.2 498.8 72.7 498.8 66.6 439.3 124.3 439.3"/>
<polygon class="st19" points="107 439.3 100.8 498.8 118.2 498.8 124.3 439.3"/>
<rect class="st20" x="100.6" y="451.6" width="21.6" height="8.3"/>
<rect class="st20" x="68.9" y="466.3" width="18.4" height="8.3"/>
<rect class="st20" x="94.4" y="479.3" width="25.3" height="8.3"/>
<polygon class="st6" points="118.2 498.8 72.7 498.8 66.6 439.3 124.3 439.3"/>
<polyline class="st6" points="96.5 419.9 110.7 412.1 110.7 340.9"/>
<line class="st6" x1="111.4" x2="122.2" y1="362.8" y2="354.1"/>
<rect class="st21" transform="matrix(.9781 -.2079 .2079 .9781 -54.794 92.234)" x="384.4" y="294.1" width="54" height="25.3"/>
<rect class="st22" transform="matrix(.9781 -.2079 .2079 .9781 -54.794 92.234)" x="384.4" y="294.1" width="54" height="25.3"/>
<path class="st23" d="m394.2 305.6 32.5-6.9c1.3-0.3 2.5 0.5 2.8 1.8l1 4.5c0.3 1.3-0.5 2.5-1.8 2.8l-32.5 6.9c-1.3 0.3-2.5-0.5-2.8-1.8l-1-4.5c-0.3-1.3 0.5-2.5 1.8-2.8z"/>
<polyline class="st24" points="398.8 295.4 407.1 271.1 417.2 290.8"/>
<circle class="st13" cx="407.1" cy="272.4" r="3"/>
<rect class="st5" x="224.8" y="417.1" width="25.3" height="11.7"/>
<line class="st25" x1="98.7" x2="103.6" y1="332.3" y2="340.9"/>
<line class="st25" x1="102.8" x2="107.7" y1="313.4" y2="321.9"/>
<line class="st26" x1="114.3" x2="119.2" y1="311.8" y2="320.3"/>
<line class="st25" x1="69.6" x2="72.6" y1="380.4" y2="385.5"/>
<line class="st26" x1="71.3" x2="74.4" y1="366.3" y2="371.5"/>

	<path class="st15" d="m636.9 229.9c-16 0-29-13-29-29v-33h58v33c0 16-13 29-29 29z"/>


	<path class="st6" d="m636.9 229.9c-16 0-29-13-29-29v-33h58v33c0 16-13 29-29 29z"/>

<rect class="st15" x="636.8" y="345.4" width="38" height="155"/>
<rect class="st1" x="645.2" y="345.4" width="19.3" height="155"/>
<rect class="st6" x="636.8" y="345.4" width="38" height="155"/>
<path class="st13" d="m657.9 366.3h-5.1c-2.7 0-4.8-2.1-4.8-4.8v-13.9h14.7v13.9c0 2.6-2.2 4.8-4.8 4.8z"/>
<line class="st27" x1="22.8" x2="721" y1="500.3" y2="500.3"/>
</svg>
