<svg enable-background="new 0 0 547 456.5" viewBox="0 0 547 456.5" xmlns="http://www.w3.org/2000/svg"><style>.st0{opacity:.3}.st1{fill:#2d2d2d;stroke:#2d2d2d;stroke-width:8;stroke-linecap:round;stroke-linejoin:round;stroke-miterlimit:10}.st2{fill:none;stroke:#2d2d2d;stroke-width:8;stroke-linecap:round;stroke-linejoin:round;stroke-miterlimit:10}.st3{fill:#00b3c6}.st4{opacity:.5;fill:#00b3c6;enable-background:new}.st5{opacity:.35;fill:#00b3c6;enable-background:new}.st6{fill:none;stroke:#330e00;stroke-width:8;stroke-linecap:round;stroke-linejoin:round;stroke-miterlimit:10}.st7{fill:#565656}.st8{opacity:.27;fill:#565656;enable-background:new}.st9{fill:#ff1f1f}.st10{fill:#fdd2a7}.st11{opacity:.5;fill:#fdd2a7;enable-background:new}.st12{fill:#3babff}.st13{fill:#330e00}.st14{fill:none;stroke:#330e00;stroke-width:6;stroke-linecap:round;stroke-linejoin:round;stroke-miterlimit:10}.st15{fill:#fff}.st16{fill:#8c6239}.st17{fill:#42210b}.st18{fill:#603813}.st19{fill:none;stroke:#330e00;stroke-width:8;stroke-linecap:round;stroke-linejoin:round;stroke-miterlimit:9.9999}.st20{opacity:.3;fill:#2d2d2d;stroke:#2d2d2d;stroke-width:8;stroke-linecap:round;stroke-linejoin:round;stroke-miterlimit:10;enable-background:new}.st21{fill:#bd3f3a}.st22{fill:#a33500}.st23{fill:none;stroke:#330e00;stroke-width:8.0002;stroke-linecap:round;stroke-linejoin:round;stroke-miterlimit:10.0003}.st24{fill:#6d2300}.st25{fill:#f99}.st26{fill:red}.st27{fill:#f33;stroke:#330e00;stroke-width:8;stroke-linecap:round;stroke-linejoin:round;stroke-miterlimit:10}.st28{fill:#bf0000}</style><g class="st0"><path class="st1" transform="matrix(.3138 -.9495 .9495 .3138 -130.99 216.78)" d="M-38.8 178h246.5v42H-38.8z"/><path class="st1" transform="matrix(.3138 -.9495 .9495 .3138 -285.27 265.7)" d="M26.2 303.6h30v53.3H26.2z"/><path class="st1" d="m40.1 372.8-23.5-7.7c-4.6-1.5-7-6.4-5.5-11l5.4-16.3L56.4 351 51 367.3c-1.5 4.5-6.3 7-10.9 5.5z"/><path class="st1" d="M143.1 88.6 103.2 75.4 144 18.8z"/></g><g class="st0"><path class="st1" transform="matrix(.3138 -.9495 .9495 .3138 -169.6 391.53)" d="M80.1 294.4h212v37.3H80.1z"/><path class="st1" transform="matrix(.3138 -.9495 .9495 .3138 28.658 328.81)" d="M170.3 120.6h143v48h-143z"/><path class="st1" d="m281.9 82.5-35.4-11.7.7-2.2c3.2-9.8 13.8-15.1 23.6-11.9s15.1 13.8 11.9 23.6l-.8 2.2z"/><path class="st2" d="M221.2 86.1 193.2 170.9z"/><path class="st2" d="M229.9 104.1 216.7 99.7z"/><path class="st1" d="m166.3 418.2c-2.5 7.5-10.6 11.6-18.1 9.1s-11.6-10.6-9.1-18.1l27.2 9z"/></g><path class="st3" transform="matrix(.3138 -.9495 .9495 .3138 -161.62 377.94)" d="M74.7 282.1h212v37.3H74.7z"/><path class="st4" transform="matrix(.3138 -.9495 .9495 .3138 -157.39 391.28)" d="M86 297.7h212v13.6H86z"/><path class="st5" transform="matrix(.3138 -.9495 .9495 .3138 -165.84 364.59)" d="M63.3 290.3h212v13.4H63.3z"/><path class="st6" transform="matrix(.3138 -.9495 .9495 .3138 -161.62 377.94)" d="M74.7 282.1h212v37.3H74.7z"/><path class="st7" transform="matrix(.3138 -.9495 .9495 .3138 36.643 315.22)" d="M164.9 108.3h143v48H164.9z"/><path class="st8" transform="matrix(.3138 -.9495 .9495 .3138 30.684 296.4)" d="M148.9 119.8h143v14.3H148.9z"/><path class="st8" transform="matrix(.3138 -.9495 .9495 .3138 42.355 333.25)" d="M180.2 130.2h143v14.3h-143z"/><path class="st6" transform="matrix(.3138 -.9495 .9495 .3138 36.643 315.22)" d="M164.9 108.3h143v48H164.9z"/><path class="st3" d="m276.5 70.2-35.4-11.7.7-2.2c3.2-9.8 13.8-15.1 23.6-11.9s15.1 13.8 11.9 23.6l-.8 2.2z"/><path class="st6" d="m276.5 70.2-35.4-11.7.7-2.2c3.2-9.8 13.8-15.1 23.6-11.9s15.1 13.8 11.9 23.6l-.8 2.2z"/><path class="st6" d="M215.8 73.7l-28 84.8z"/><path class="st6" d="M224.5 91.8 211.3 87.4z"/><path class="st7" d="m160.9 405.9c-2.5 7.5-10.6 11.6-18.1 9.1s-11.6-10.6-9.1-18.1l27.2 9z"/><path class="st6" d="m160.9 405.9c-2.5 7.5-10.6 11.6-18.1 9.1s-11.6-10.6-9.1-18.1l27.2 9z"/><path class="st9" transform="matrix(.3138 -.9495 .9495 .3138 -121.48 200.25)" d="M-45.5 163.2H201v42H-45.5z"/><path class="st6" transform="matrix(.3138 -.9495 .9495 .3138 -121.48 200.25)" d="M-45.5 163.2H201v42H-45.5z"/><path class="st6" transform="matrix(.3138 -.9495 .9495 .3138 -121.48 200.25)" d="M-45.5 176.9H201v14.6H-45.5z"/><path class="st10" transform="matrix(.3138 -.9495 .9495 .3138 -275.76 249.17)" d="M19.5 288.7h30V342h-30z"/><path class="st11" transform="matrix(.3138 -.9495 .9495 .3138 -269.11 270.16)" d="M37.4 313.4h30v15.7H37.4z"/><path class="st10" transform="matrix(.3138 -.9495 .9495 .3138 -282.65 227.39)" d="M1 302.1h30v14.3H1z"/><path class="st6" transform="matrix(.3138 -.9495 .9495 .3138 -275.76 249.17)" d="M19.5 288.7h30V342h-30z"/><path class="st12" d="m33.4 358-23.4-7.8c-4.6-1.5-7-6.4-5.5-11l5.4-16.3 39.9 13.2-5.4 16.3c-1.6 4.6-6.4 7.1-11 5.6z"/><path class="st6" d="m33.4 358-23.4-7.8c-4.6-1.5-7-6.4-5.5-11l5.4-16.3 39.9 13.2-5.4 16.3c-1.6 4.6-6.4 7.1-11 5.6z"/><path class="st10" d="M136.4 73.7 96.5 60.6 137.3 4z"/><path class="st6" d="M136.4 73.7 96.5 60.6 137.3 4z"/><path class="st13" d="M137.3 4 120 28 136.9 33.6z"/><path class="st14" d="M173.9 305.9 148.5 382.6z"/><path class="st6" transform="matrix(.3138 -.9495 .9495 .3138 -161.62 377.94)" d="M74.7 282.1h212v37.3H74.7z"/><path class="st6" transform="matrix(.3138 -.9495 .9495 .3138 36.643 315.22)" d="M164.9 108.3h143v48H164.9z"/><path class="st6" d="m276.5 70.2-35.4-11.7.7-2.2c3.2-9.8 13.8-15.1 23.6-11.9s15.1 13.8 11.9 23.6l-.8 2.2z"/><path class="st6" d="M215.8 73.7l-28 84.8z"/><path class="st6" d="M224.5 91.8 211.3 87.4z"/><path class="st6" d="m160.9 405.9c-2.5 7.5-10.6 11.6-18.1 9.1s-11.6-10.6-9.1-18.1l27.2 9z"/><g class="st0"><path class="st1" d="m289.3 445.1-35-48.7c-5.8-8-3.9-19.3 4.1-25.1l220.9-158.8c8-5.8 19.3-3.9 25.1 4.1l35 48.7c5.8 8 3.9 19.3-4.1 25.1l-220.9 158.7c-8 5.8-19.3 4-25.1-4z"/><path class="st1" d="m319 425.6-57-18.8c-9.4-3.1-14.5-13.3-11.4-22.7l85.4-258.3c3.1-9.4 13.3-14.5 22.7-11.4l57 18.8c9.4 3.1 14.5 13.3 11.4 22.7l-85.3 258.3c-3.2 9.5-13.3 14.5-22.8 11.4z"/><path class="st1" d="m307.3 437.7-49.6-33.7c-8.3-5.6-10.4-16.8-4.7-25l153.3-224.8c5.6-8.3 16.8-10.4 25-4.7l49.6 33.8c8.3 5.6 10.4 16.8 4.7 25l-153.2 224.8c-5.7 8.1-16.8 10.2-25.1 4.6z"/></g><path class="st15" d="m289.6 428.3-35-48.7c-5.8-8-3.9-19.3 4.1-25.1l220.9-158.8c8-5.8 19.3-3.9 25.1 4.1l35 48.7c5.8 8 3.9 19.3-4.1 25.1l-220.9 158.8c-8 5.8-19.3 3.9-25.1-4.1z"/><path class="st6" d="m289.6 428.3-35-48.7c-5.8-8-3.9-19.3 4.1-25.1l220.9-158.8c8-5.8 19.3-3.9 25.1 4.1l35 48.7c5.8 8 3.9 19.3-4.1 25.1l-220.9 158.8c-8 5.8-19.3 3.9-25.1-4.1z"/><path class="st6" d="m389.4 378.6-56.1-77.9 146.1-105.1c8-5.8 19.3-3.9 25.1 4.1l35 48.7c5.8 8 3.9 19.3-4.1 25.1l-146 105.1z"/><path class="st16" d="m496.6 301.7-56.1-77.9 38.9-28c8-5.8 19.3-3.9 25.1 4.1l35 48.7c5.8 8 3.9 19.3-4.1 25.1l-38.8 28z"/><path class="st6" d="m496.6 301.7-56.1-77.9 38.9-28c8-5.8 19.3-3.9 25.1 4.1l35 48.7c5.8 8 3.9 19.3-4.1 25.1l-38.8 28z"/><path class="st17" transform="matrix(.812 -.5837 .5837 .812 -114.01 286.81)" d="M355.2 272.4h66v96h-66z"/><path class="st18" transform="matrix(.812 -.5837 .5837 .812 -81.442 310.85)" d="M408.7 233.8h66v96h-66z"/><path class="st19" transform="matrix(.812 -.5837 .5837 .812 -81.442 310.85)" d="M408.7 233.8h66v96h-66z"/><path class="st19" transform="matrix(.812 -.5837 .5837 .812 -114.01 286.81)" d="M355.2 272.4h66v96h-66z"/><circle class="st6" cx="276.4" cy="370.4" r="8"/><path class="st20" d="m486.5 172.5-49.6-33.8c-8.3-5.6-19.4-3.5-25 4.7l-153.3 224.7c-5.6 8.3-3.5 19.4 4.7 25l50.9 13.7c.4.3 4.6 1.8 5 2.1l4.6 1.5 7.6 1.7c8.1 1.7 16.3-1.6 20.9-8.5l139.1-206.1c5.5-8.2 3.3-19.4-4.9-25z"/><path class="st15" d="m307.6 421-49.6-33.8c-8.3-5.6-10.4-16.8-4.7-25l153.3-224.8c5.6-8.3 16.8-10.4 25-4.7l49.6 33.8c8.3 5.6 10.4 16.8 4.7 25L332.6 416.3c-5.6 8.1-16.7 10.3-25 4.7z"/><path class="st6" d="m307.6 421-49.6-33.8c-8.3-5.6-10.4-16.8-4.7-25l153.3-224.8c5.6-8.3 16.8-10.4 25-4.7l49.6 33.8c8.3 5.6 10.4 16.8 4.7 25L332.6 416.3c-5.6 8.1-16.7 10.3-25 4.7z"/><path class="st21" d="m458.8 231.1-79.3-54.1 27-39.6c5.6-8.3 16.8-10.4 25-4.7l49.6 33.8c8.3 5.6 10.4 16.8 4.7 25l-27 39.6z"/><path class="st6" d="m384.4 340.2-79.3-54.1 101.4-148.7c5.6-8.3 16.8-10.4 25-4.7l49.6 33.8c8.3 5.6 10.4 16.8 4.7 25L384.4 340.2z"/><path class="st22" transform="matrix(.5633 -.8263 .8263 .5633 -16.226 432.08)" d="M367.6 183.4h66v96h-66z"/><path class="st23" transform="matrix(.5633 -.8263 .8263 .5633 -16.226 432.08)" d="M367.6 183.4h66v96h-66z"/><path class="st24" transform="matrix(.5633 -.8263 .8263 .5633 -77.574 425.17)" d="M330.4 238h66v96h-66z"/><path class="st23" transform="matrix(.5633 -.8263 .8263 .5633 -77.574 425.17)" d="M330.4 238h66v96h-66z"/><circle class="st6" cx="275.4" cy="371.2" r="8"/><path class="st20" d="m325.6 415.1-57-18.8c-9.4-3.1-14.5-13.3-11.4-22.7l85.3-258.3c3.1-9.4 13.3-14.5 22.7-11.4l57 18.8c9.4 3.1 14.5 13.3 11.4 22.7l-85.3 258.3c-3.1 9.5-13.2 14.6-22.7 11.4z"/><path class="st15" d="m319.3 408.8-57-18.8c-9.4-3.1-14.5-13.3-11.4-22.7L336.2 109c3.1-9.4 13.3-14.5 22.7-11.4l57 18.8c9.4 3.1 14.5 13.3 11.4 22.7l-85.3 258.3c-3.1 9.5-13.2 14.6-22.7 11.4z"/><path class="st6" d="m319.3 408.8-57-18.8c-9.4-3.1-14.5-13.3-11.4-22.7L336.2 109c3.1-9.4 13.3-14.5 22.7-11.4l57 18.8c9.4 3.1 14.5 13.3 11.4 22.7l-85.3 258.3c-3.1 9.5-13.2 14.6-22.7 11.4z"/><path class="st6" d="m370.9 310-91.2-30.1 56.5-170.9c3.1-9.4 13.3-14.5 22.7-11.4l57 18.8c9.4 3.1 14.5 13.3 11.4 22.7L370.9 310z"/><path class="st25" d="m412.3 184.7-91.2-30.1 15.1-45.6c3.1-9.4 13.3-14.5 22.7-11.4l57 18.8c9.4 3.1 14.5 13.3 11.4 22.7l-15 45.6z"/><path class="st6" d="m412.3 184.7-91.2-30.1 15.1-45.6c3.1-9.4 13.3-14.5 22.7-11.4l57 18.8c9.4 3.1 14.5 13.3 11.4 22.7l-15 45.6z"/><path class="st26" transform="matrix(.3138 -.9495 .9495 .3138 53.739 476.31)" d="M323.4 153h66v96h-66z"/><path class="st27" transform="matrix(.3138 -.9495 .9495 .3138 53.739 476.31)" d="M323.4 153h66v96h-66z"/><path class="st28" transform="matrix(.3138 -.9495 .9495 .3138 -19.974 499.66)" d="M302.7 215.6h66v96h-66z"/><path class="st6" transform="matrix(.3138 -.9495 .9495 .3138 -19.974 499.66)" d="M302.7 215.6h66v96h-66z"/><circle class="st6" cx="274.7" cy="369.9" r="8"/><path class="st13" d="m288 300.1-1.6-.5-.9 2.8-.8-.3 2.1-6.5 2.4.8c1.9.6 2.4 1.6 2 2.8-.3 1.1-1.3 1.6-3.2.9zm.2-.5c1.3.4 2.1.2 2.3-.7.3-.9-.1-1.5-1.5-2l-1.6-.5-.9 2.7 1.7.5z"/><path class="st13" d="m296.5 304.3-3.6-1.2-1.2 1.3-.9-.3 5-5.4.9.3.8 7.3-.9-.3-.1-1.7zm-.5-4.6-2.8 3 3.1 1-.3-4z"/><path class="st13" d="m307.1 302.3-2.1 6.5-.8-.3-2.7-6.9-1.8 5.4-.8-.3 2.1-6.5.8.3 2.7 6.9 1.8-5.4.8.3z"/><path class="st13" d="m308.5 302.8 5.2 1.7-.2.6-2.2-.7-1.9 5.9-.8-.3 1.9-5.9-2.3-.8.3-.5z"/><path class="st13" d="m316.6 312.7c-2.3-.8-3.5-2.6-2.9-4.6.6-1.9 2.8-2.8 5.1-2s3.5 2.6 2.9 4.6c-.7 2-2.8 2.8-5.1 2zm.2-.5c1.8.6 3.5.0 4-1.7.6-1.7-.4-3.2-2.2-3.8s-3.5.0-4 1.7c-.6 1.7.5 3.2 2.2 3.8z"/><path class="st13" d="m330.5 310.1-2.1 6.5-.8-.3-2.7-6.9-1.8 5.4-.8-.3 2.1-6.5.8.3 2.7 6.9 1.8-5.4.8.3z"/><path class="st13" d="m336.4 312.7-3.4-1.1-.8 2.4 3 1-.2.6-3-1-.8 2.5 3.4 1.1-.2.6-4.2-1.4 2.1-6.5 4.2 1.4-.1.4z"/><path class="st13" d="m338.8 312.7 1.5.5-.1.2-.6-.2-.6 1.9-.4-.1.6-1.9-.6-.2.2-.2z"/><path class="st13" d="m340.7 313.3.3.1.2 2 1.3-1.5.3.1-.7 2.1-.3-.1.5-1.6-1.3 1.4-.2-.1-.2-1.9-.5 1.6-.3-.1.7-2.1.2.1z"/></svg>