<svg enable-background="new 0 0 755 519" viewBox="0 0 755 519" xmlns="http://www.w3.org/2000/svg"><style>.st0{fill:#ecf9ff}.st1{fill:#fff}.st2{fill:#f5a623}.st3{fill:#f5969c}.st4{opacity:.18;fill:#282828;stroke:#282828;stroke-width:6;stroke-linecap:round;stroke-linejoin:round;stroke-miterlimit:10;enable-background:new}.st5{fill:#df747c}.st6{fill:none;stroke:#2d255e;stroke-width:6;stroke-linecap:round;stroke-linejoin:round;stroke-miterlimit:10}.st7{fill:#66cdfd}.st8{fill:#3297d9}.st9{opacity:.3;fill:#fff;enable-background:new}.st10{fill:#d49d7f}.st11{fill:#db6b7b}.st12{fill:#ce5569}.st13{fill:#2d255e}.st14{fill:#d68821}.st15{fill:#d6d6d6}.st16{fill:#14a56a}.st17{fill:#12b075}.st18{fill:#69351f}.st19{fill:#632d1b}.st20{fill:#562314}.st21{fill:#e8e8e8}.st22{fill:none;stroke:#2d255e;stroke-width:2.9998;stroke-linecap:round;stroke-linejoin:round;stroke-miterlimit:9.999}.st23{fill:#d3d3d3}.st24{fill:none;stroke:#2d255e;stroke-width:2;stroke-linecap:round;stroke-linejoin:round;stroke-miterlimit:10}.st25{opacity:.38;fill:none;stroke:#006837;stroke-width:6;stroke-linecap:round;stroke-linejoin:round;stroke-miterlimit:10;enable-background:new}.st26{fill:none;stroke:#39d188;stroke-width:6;stroke-linecap:round;stroke-linejoin:round;stroke-miterlimit:10}.st27{fill:none;stroke:#2d255e;stroke-width:8;stroke-linecap:round;stroke-linejoin:round;stroke-miterlimit:10}</style><path class="st0" d="m715.9 37.8c-4.7.0-9 1.7-12.3 4.4-5.8-13.9-19.5-23.7-35.6-23.7-21.3.0-38.5 17.3-38.5 38.5h105.7c0-10.6-8.6-19.2-19.3-19.2z"/><path class="st0" d="m132.8 109.2c-2.9.0-5.6.7-7.9 2-5-8.2-14-13.7-24.3-13.7-5 0-9.8 1.3-13.9 3.6C78.8 89.6 65.6 82 50.5 82c-24.2.0-43.8 19.6-43.8 43.8h142.8c0-9.2-7.5-16.6-16.7-16.6z"/><path class="st1" d="M665.9 167.9h-58L590.8 71.9H643.9z"/><path class="st2" d="M607.9 167.9h-58L537.7 71.9H590.8z"/><path class="st1" d="M549.9 167.9h-58L484.6 71.9H537.7z"/><path class="st2" d="M491.9 167.9h-58L431.5 71.9H484.6z"/><path class="st1" d="M433.9 167.9h-58l2.5-96H431.5z"/><path class="st2" d="M375.9 167.9h-58L325.3 71.9H378.4z"/><path class="st1" d="M317.9 167.9h-58L272.1 71.9H325.3z"/><path class="st2" d="M259.9 167.9H201.9L219 71.9H272.1z"/><path class="st1" d="M201.9 167.9h-58l22-96H219z"/><path class="st3" d="M165.9 204.3h169v236H165.9z"/><path class="st4" d="M192.4 392.3h116v6.1H192.4z"/><path class="st5" d="M301.5 263.4h25.3v11.7H301.5z"/><path class="st5" d="M165.9 243h16.9v11.7H165.9z"/><path class="st5" d="M318.8 278.1h18v11.7h-18z"/><path class="st5" d="M320.5 402.4h12.7v11.7H320.5z"/><path class="st5" d="M210.5 402.4h25.3v11.7H210.5z"/><path class="st5" d="M196.5 417.1h25.3v11.7H196.5z"/><path class="st6" d="M165.9 204.3h170v236H165.9z"/><path class="st7" d="M198.4 212.3h104v172H198.4z"/><path class="st8" d="m265.4 374.5h-38.3c-1.5.0-2.7-1.2-2.7-2.7v-1.2c0-1.5 1.2-2.7 2.7-2.7h38.3c1.5.0 2.7 1.2 2.7 2.7v1.2c.1 1.5-1.2 2.7-2.7 2.7z"/><path class="st8" d="M238.2 373.3h16.3v11.8H238.2z"/><path class="st8" d="m283.4 385.4h-8v-37.8c0-2.2 1.8-4 4-4s4 1.8 4 4v37.8z"/><path class="st8" d="m218.3 385.4h-8v-37.8c0-2.2 1.8-4 4-4s4 1.8 4 4v37.8z"/><path class="st9" d="M298.6 384.3 302.4 378.9V306.4L247.9 384.3z"/><path class="st9" d="M241 384.3 302.4 296.8V280.3L229.6 384.3z"/><path class="st9" d="M220.6 384.3 302.4 267.5V259.3L214.9 384.3z"/><path class="st6" d="M198.4 212.3h104v172H198.4z"/><path class="st10" d="M192.4 384.3h116v12H192.4z"/><path class="st6" d="M192.4 384.3h116v12H192.4z"/><path class="st10" d="M335.9 207.7h138v292.6h-138z"/><path class="st6" d="M335.9 207.7h138v292.6h-138z"/><path class="st7" d="M350.9 224.1h108v202.7h-108z"/><path class="st9" d="M459.9 427.8V331.4L404.3 427.8z"/><path class="st9" d="M397.7 426.8 458.9 320.8V287.6L378.6 426.8z"/><path class="st9" d="M369.7 426.8 458.9 272.3V261.4L363.5 426.8z"/><path class="st6" d="M350.9 224.1h108v202.7h-108z"/><path class="st11" d="M146.9 440.3h196.8v60H146.9z"/><path class="st12" d="M146.9 440.3h8.4v60H146.9z"/><path class="st12" d="M337 440.3h4.9v60H337z"/><path class="st6" d="M146.9 440.3h196.8v60H146.9z"/><path class="st3" d="M474.4 204.4h169v236h-169z"/><path class="st5" d="M604.2 417.1h25.3v11.7H604.2z"/><path class="st5" d="M474.3 417.1h25.3v11.7H474.3z"/><path class="st5" d="M589 402.4h25.3v11.7H589z"/><path class="st5" d="M491.9 237.9h15.5v11.7H491.9z"/><path class="st5" d="M473.3 351.3h15.5V363H473.3z"/><path class="st6" d="M473.4 204.4h170v236h-170z"/><path class="st7" d="M506.8 212.3h104v172H506.8z"/><path class="st8" d="m543.8 374.5h38.3c1.5.0 2.7-1.2 2.7-2.7v-1.2c0-1.5-1.2-2.7-2.7-2.7h-38.3c-1.5.0-2.7 1.2-2.7 2.7v1.2c0 1.5 1.2 2.7 2.7 2.7z"/><path class="st8" d="M554.8 373.3h16.3v11.8H554.8z"/><path class="st8" d="m525.9 385.4h8v-37.8c0-2.2-1.8-4-4-4s-4 1.8-4 4v37.8z"/><path class="st8" d="m590.9 385.4h8v-37.8c0-2.2-1.8-4-4-4s-4 1.8-4 4v37.8z"/><path class="st9" d="M607.1 384.3 610.8 378.9V306.4L556.3 384.3z"/><path class="st9" d="M549.5 384.3 610.8 296.8V280.3L538 384.3z"/><path class="st9" d="M529 384.3 610.8 267.5V259.3l-87.5 125z"/><path class="st6" d="M506.8 212.3h104v172H506.8z"/><path class="st4" d="M500.8 392.3h116v6.1H500.8z"/><path class="st10" d="M500.9 384.3h116v12h-116z"/><path class="st6" d="M500.9 384.3h116v12h-116z"/><path class="st11" d="M467.1 440.4h195.2v60H467.1z"/><path class="st12" d="M467.2 440.3h7.2v60H467.2z"/><path class="st6" d="M467.1 440.4h195.2v60H467.1z"/><path class="st13" d="m370.3 366.1c-2.5.0-4.5-2-4.5-4.5v-48.3c0-2.5 2-4.5 4.5-4.5s4.5 2 4.5 4.5v48.3c0 2.5-2 4.5-4.5 4.5z"/><path class="st4" d="m607.9 173.9h-442V235c2.2.6 4.6.9 7 .9 16 0 29-13 29-29 0 16 13 29 29 29s29-13 29-29c0 16 13 29 29 29s29-13 29-29c0 16 13 29 29 29s29-13 29-29c0 16 13 29 29 29s29-13 29-29c0 16 13 29 29 29s29-13 29-29c0 16 13 29 29 29s29-13 29-29c0 16 13 29 29 29s29-13 29-29c0 16 13 29 29 29 2.2.0 4.4-.3 6.4-.7v-61.3h-35.4z"/><path class="st14" d="m578.9 229.9c-16 0-29-13-29-29v-33h58v33c0 16-13 29-29 29z"/><path class="st15" d="m520.9 229.9c-16 0-29-13-29-29v-33h58v33c0 16-13 29-29 29z"/><path class="st14" d="m462.9 229.9c-16 0-29-13-29-29v-33h58v33c0 16-13 29-29 29z"/><path class="st15" d="m404.9 229.9c-16 0-29-13-29-29v-33h58v33c0 16-13 29-29 29z"/><path class="st14" d="m346.9 229.9c-16 0-29-13-29-29v-33h58v33c0 16-13 29-29 29z"/><path class="st15" d="m288.9 229.9c-16 0-29-13-29-29v-33h58v33c0 16-13 29-29 29z"/><path class="st14" d="m230.9 229.9c-16 0-29-13-29-29v-33h58v33c0 16-13 29-29 29z"/><path class="st15" d="m172.9 229.9c-16 0-29-13-29-29v-33h58v33c0 16-13 29-29 29z"/><path class="st6" d="m578.9 229.9c-16 0-29-13-29-29v-33h58v33c0 16-13 29-29 29z"/><path class="st6" d="m520.9 229.9c-16 0-29-13-29-29v-33h58v33c0 16-13 29-29 29z"/><path class="st6" d="m462.9 229.9c-16 0-29-13-29-29v-33h58v33c0 16-13 29-29 29z"/><path class="st6" d="m404.9 229.9c-16 0-29-13-29-29v-33h58v33c0 16-13 29-29 29z"/><path class="st6" d="m346.9 229.9c-16 0-29-13-29-29v-33h58v33c0 16-13 29-29 29z"/><path class="st6" d="m288.9 229.9c-16 0-29-13-29-29v-33h58v33c0 16-13 29-29 29z"/><path class="st6" d="m230.9 229.9c-16 0-29-13-29-29v-33h58v33c0 16-13 29-29 29z"/><path class="st6" d="m172.9 229.9c-16 0-29-13-29-29v-33h58v33c0 16-13 29-29 29z"/><path class="st6" d="M665.9 167.9h-58L590.8 71.9H643.9z"/><path class="st6" d="M607.9 167.9h-58L537.7 71.9H590.8z"/><path class="st6" d="M549.9 167.9h-58L484.6 71.9H537.7z"/><path class="st6" d="M491.9 167.9h-58L431.5 71.9H484.6z"/><path class="st6" d="M433.9 167.9h-58l2.5-96H431.5z"/><path class="st6" d="M375.9 167.9h-58L325.3 71.9H378.4z"/><path class="st6" d="M317.9 167.9h-58L272.1 71.9H325.3z"/><path class="st6" d="M259.9 167.9H201.9L219 71.9H272.1z"/><path class="st6" d="M201.9 167.9h-58l22-96H219z"/><path class="st11" d="M165.9 53.9h478v18h-478z"/><path class="st3" d="M165.9 53.9h478v6.2h-478z"/><path class="st6" d="M165.9 53.9h478v18h-478z"/><path class="st6" d="M95.4 385.1v57z"/><path class="st16" d="m114.2 386.9h-6c-11.8.0-21.4-9.6-21.4-21.4v-49.2c0-11.8 9.6-21.4 21.4-21.4h6c11.8.0 21.4 9.6 21.4 21.4v49.2c.1 11.8-9.5 21.4-21.4 21.4z"/><path class="st6" d="m114.2 386.9h-6c-11.8.0-21.4-9.6-21.4-21.4v-49.2c0-11.8 9.6-21.4 21.4-21.4h6c11.8.0 21.4 9.6 21.4 21.4v49.2c.1 11.8-9.5 21.4-21.4 21.4z"/><path class="st6" d="M79.2 405 82.2 420.3 95.4 425.3"/><path class="st17" d="m72.9 407.5c-9.7.0-17.6-7.9-17.6-17.6v-26.1c0-9.7 7.9-17.6 17.6-17.6s17.6 7.9 17.6 17.6v26.1c0 9.7-7.9 17.6-17.6 17.6z"/><path class="st6" d="m72.9 407.5c-9.7.0-17.6-7.9-17.6-17.6v-26.1c0-9.7 7.9-17.6 17.6-17.6s17.6 7.9 17.6 17.6v26.1c0 9.7-7.9 17.6-17.6 17.6z"/><path class="st18" d="M118.2 498.8H72.7L66.6 439.3h57.7z"/><path class="st19" d="M107 439.3 100.8 498.8H118.2L124.3 439.3z"/><path class="st20" d="M100.6 451.6h21.6v8.3H100.6z"/><path class="st20" d="M68.9 466.3h18.4v8.3H68.9z"/><path class="st20" d="M94.4 479.3h25.3v8.3H94.4z"/><path class="st6" d="M118.2 498.8H72.7L66.6 439.3h57.7z"/><path class="st6" d="M96.5 419.9 110.7 412.1V340.9"/><path class="st6" d="M111.4 362.8 122.2 354.1z"/><path class="st21" transform="matrix(.9781 -.2079 .2079 .9781 -54.794 92.234)" d="M384.4 294.1h54v25.3h-54z"/><path class="st22" transform="matrix(.9781 -.2079 .2079 .9781 -54.794 92.234)" d="M384.4 294.1h54v25.3h-54z"/><path class="st23" d="m394.2 305.6 32.5-6.9c1.3-.3 2.5.5 2.8 1.8l1 4.5c.3 1.3-.5 2.5-1.8 2.8l-32.5 6.9c-1.3.3-2.5-.5-2.8-1.8l-1-4.5c-.3-1.3.5-2.5 1.8-2.8z"/><path class="st24" d="M398.8 295.4 407.1 271.1 417.2 290.8"/><circle class="st13" cx="407.1" cy="272.4" r="3"/><path class="st5" d="M224.8 417.1h25.3v11.7H224.8z"/><path class="st25" d="M98.7 332.3 103.6 340.9z"/><path class="st25" d="M102.8 313.4 107.7 321.9z"/><path class="st26" d="M114.3 311.8 119.2 320.3z"/><path class="st25" d="M69.6 380.4 72.6 385.5z"/><path class="st26" d="M71.3 366.3 74.4 371.5z"/><path class="st15" d="m636.9 229.9c-16 0-29-13-29-29v-33h58v33c0 16-13 29-29 29z"/><path class="st6" d="m636.9 229.9c-16 0-29-13-29-29v-33h58v33c0 16-13 29-29 29z"/><path class="st15" d="M636.8 345.4h38v155h-38z"/><path class="st1" d="M645.2 345.4h19.3v155H645.2z"/><path class="st6" d="M636.8 345.4h38v155h-38z"/><path class="st13" d="m657.9 366.3h-5.1c-2.7.0-4.8-2.1-4.8-4.8v-13.9h14.7v13.9c0 2.6-2.2 4.8-4.8 4.8z"/><path class="st27" d="M22.8 500.3H721z"/></svg>