<svg enable-background="new 0 0 765.3 618.9" viewBox="0 0 765.3 618.9" xmlns="http://www.w3.org/2000/svg"><style>.st0{opacity:.34;enable-background:new}.st1{fill:#65706c}.st2{fill:#2f262d}.st3{fill:#fc9f6f}.st4{fill:#f2f2f2}.st5{fill:#3b323a}.st6{fill:#afafaf}.st7{fill:#ef9067}.st8{fill:#603936}.st9{fill:#f05364}.st10{fill:#494149}.st11{opacity:.71;fill:#d36b46;enable-background:new}.st12{fill:#dd9883}.st13{fill:none;stroke:#dd9883;stroke-width:3;stroke-linecap:round;stroke-linejoin:round;stroke-miterlimit:10}.st14{opacity:.6;fill:#ef9067;enable-background:new}.st15{fill:none;stroke:#f6cdf7;stroke-width:3;stroke-linecap:round;stroke-linejoin:round;stroke-miterlimit:10}.st16{fill:#fcfafa}.st17{fill:none;stroke:#161515;stroke-width:3;stroke-linecap:round;stroke-linejoin:round;stroke-miterlimit:10}.st18{fill:#754743}.st19{fill:#f4eff0}.st20{fill:#fff}.st21{fill:#e2e2e2}.st22{fill:#352934}.st23{fill:#cecece}.st24{fill:#535452}.st25{fill:#fffdfd}.st26{fill:#424441}.st27{fill:#ff6161}.st28{fill:#f4a36c}.st29{fill:#f7bc8b}.st30{fill:#efa573}.st31{opacity:.77;fill:#f2f2f2;enable-background:new}</style><path class="st0" d="m686.5 618.9h-619.2c-7.9.0-14.3-6.4-14.3-14.3s6.4-14.3 14.3-14.3h619.2c7.9.0 14.3 6.4 14.3 14.3s-6.4 14.3-14.3 14.3z"/><path class="st1" d="m732 430.5H606.1c-12.8.0-23.2-10.4-23.2-23.2s10.4-23.2 23.2-23.2h70.3c15.2.0 27.5-12.3 27.5-27.5s-12.3-27.5-27.5-27.5h-62.5c-17.1.0-31-13.9-31-31s13.9-31 31-31h69.5c15.2.0 27.6-12.4 27.6-27.6s-12.4-27.6-27.6-27.6H559c-15.2.0-27.6-12.4-27.6-27.6s12.4-27.6 27.6-27.6h27.2c15.2.0 27.6-12.4 27.6-27.6s-12.4-27.6-27.6-27.6h-398.9c-15.2.0-27.6 12.4-27.6 27.6s12.4 27.6 27.6 27.6h11.7c15.2.0 27.6 12.4 27.6 27.6s-12.4 27.6-27.6 27.6h-105.3c-11.7.0-21.2 9.5-21.2 21.2s9.5 21.2 21.2 21.2h110.9c12.2.0 22.1 9.9 22.1 22.1s-9.9 22.1-22.1 22.1h-177c-15.2.0-27.6 12.4-27.6 27.6s12.4 27.6 27.6 27.6h171.4c15.2.0 27.6 12.4 27.6 27.6s-12.4 27.6-27.6 27.6h-103.5c-24.4.0-44.2 19.8-44.2 44.2s19.8 44.2 44.2 44.2h636.5c18.4.0 33.3-14.9 33.3-33.3.0-18.6-14.9-33.5-33.3-33.5z"/><path class="st2" d="M498.4 333.8h18v270.8h-18z"/><path class="st3" d="m429.9 388.4c-2.9-6.5.0-14.2 6.6-17.2 1.7-.7 3.5-1.1 5.3-1.1 5.1.0 9.8 3 11.9 7.7l64 144.2-23.8 10.6-64-144.2z"/><path class="st2" d="M322.9 333.8h18v270.8h-18z"/><path class="st4" d="m406.2 351.5c-61.9.0-112-47.2-112-105.3.0-15 3.4-29.3 9.4-42.3-39.4 16.3-66.9 53.4-66.9 96.4.0 58.2 50.1 105.3 112 105.3 45.9.0 85.3-25.9 102.6-63-13.9 5.7-29.1 8.9-45.1 8.9z"/><ellipse class="st5" cx="344.2" cy="323.7" rx="61.3" ry="56.3"/><path class="st6" d="m233.8 333.8h-137.1c-5.2.0-9.5-4.3-9.5-9.5v-9c0-5.2 4.3-9.5 9.5-9.5h137.1c5.2.0 9.5 4.3 9.5 9.5v9c0 5.2-4.3 9.5-9.5 9.5z"/><path class="st7" d="m397.3 280.8c-19.2.0-34.8-15.6-34.8-34.8v-34.8c0-13.3-10.7-24-24-24V246c0 32.5 26.3 58.8 58.8 58.8H446v-24h-48.7z"/><path class="st8" d="m405.2 97.1c-3.6 45.5-43.6 95.9-81 89.5-35.8-6.1-60.4-62.6-48.3-102.2 7.5-24.4 28.1-39.7 44.7-52 17.2-12.8 28.8-21.4 42-19.3 26.2 4 45.5 47.8 42.6 84z"/><path class="st9" d="m354.7 226.6c-.7-.8-6.3-7.3-7.3-8.2-2.6-10.7-7.9-22.5-6.8-36.3-7.5-5.5-19.9-12.5-34-11.5-4.2.3-8.6 1.3-10.8 1.8-12.2 2.8-19.9 7.3-22.4 8.8-3.4 2.1-5.1 3.1-7.1 5.1-5.4 5.6-6.7 12.4-7.4 16.4-6 34.8-1.3 68.2-.7 71.1 1.1 5.3 2.6 10 2.6 10 2.5 7.9 5.5 12.8 6.3 15 4 10.8 13.1 33.5 22.7 50.8 7 1.1 22.9 8.1 33.4 4.5 16-5.5 49-17.8 60.8-20.3-14.7-16.5-28.2-34.9-31.7-57.3-.9-5.8-1.7-11.5-2.3-17.1 1.4-.7 9.9-5 11.6-13.6 1.8-9.3-5.5-17.6-6.9-19.2z"/><ellipse class="st7" transform="matrix(.9632 -.2686 .2686 .9632 -38.741 91.076)" cx="313.5" cy="187.1" rx="16.4" ry="19.1"/><path class="st8" d="m310.9 164.4c5.5 13 14.6 17.5 20.4 20.9 11.3 6.6 32.5 6 32.5 6 .7-4.6 1.4-8.6 5-16.2 5.2-11.3 10-14 16.7-24.2 10-15.4 15-34 11.8-35.8-2.3-1.4-8.6 5.8-12.7 10-11.7 12-37.9 29.8-73.7 39.3z"/><path class="st7" d="m310.5 193h-4.2c-9.2.0-16.6-7.4-16.6-16.6v-63.1h33.2v67.2c0 6.9-5.6 12.5-12.4 12.5z"/><path class="st2" d="M123.6 333.8h18v270.8h-18z"/><path class="st10" d="M234.3 333.8h18v270.8h-18z"/><path class="st10" d="M606.8 333.8h18v270.8h-18z"/><path class="st11" d="M289.7 120c2.2 19.1 15.4 34.9 33.2 40.9v-51.4h-33.2V120z"/><path class="st3" d="m338.5 158.4c-24.4.0-44.1-19.7-44.1-44.1v-53.8c0-2.3 1.8-4.1 4.1-4.1h62.7c11.8.0 21.4 9.6 21.4 21.4v36.5c0 24.4-19.7 44.1-44.1 44.1z"/><path class="st12" d="m382.6 108c-.5 1.2-1.7 2-3 2h-19.4c-1.8.0-3.3-1.5-3.3-3.3V95.8c0-1.8 1.5-3.3 3.3-3.3h19.4c1.3.0 2.5.8 3 2v-4.2c-.9-.5-1.9-.8-3-.8h-19.4c-3.5.0-6.3 2.8-6.3 6.3v10.9c0 3.5 2.8 6.3 6.3 6.3h19.4c1.1.0 2.1-.3 3-.8V108z"/><path class="st13" d="m343.6 111.4h-19.4c-2.7.0-4.8-2.2-4.8-4.8V95.7c0-2.7 2.2-4.8 4.8-4.8h19.4c2.7.0 4.8 2.2 4.8 4.8v10.9c0 2.7-2.2 4.8-4.8 4.8z"/><path class="st14" d="m321.8 122.7V68.9c0-2.3 1.8-4.1 4.1-4.1l36.2-12.7c-3.9-5.1 6 4.4-.9 4.4h-62.7c-2.3.0-4.1 1.8-4.1 4.1v53.8c0 24.4 19.7 44.1 44.1 44.1h1.6c-11.1-8.1-18.3-21.1-18.3-35.8z"/><path class="st15" d="m379.6 109.4h-19.4c-2.7.0-4.8-2.2-4.8-4.8V93.7c0-2.7 2.2-4.8 4.8-4.8h19.4c2.7.0 4.8 2.2 4.8 4.8v10.9c0 2.7-2.2 4.8-4.8 4.8z"/><path class="st16" d="m350 136.2c-5.6.0-10.1-4.5-10.1-10v-4.7h20v4.7c0 5.5-4.4 10-9.9 10z"/><path class="st17" d="M331.9 97.9h9z"/><path class="st17" d="M365.9 97.9h9z"/><path class="st15" d="m343.6 109.4h-19.4c-2.7.0-4.8-2.2-4.8-4.8V93.7c0-2.7 2.2-4.8 4.8-4.8h19.4c2.7.0 4.8 2.2 4.8 4.8v10.9c0 2.7-2.2 4.8-4.8 4.8z"/><path class="st18" d="m357 15.9c-12.1-15.6-32.7-15.3-36.5-15.7-3.4-.7-22.1.2-35.8 3.8-31.6 8.4-53.6 37-53.6 69.8v42c0 28.2 20.8 62.4 47.5 71.3 14.8 5 31.2 8.8 35.1 8.2-19.8-36.7-17.1-58.4-11.5-71.1 13.4-31 52.7-29.9 62.4-64.4.2-1 6.3-25.9-7.6-43.9z"/><path class="st9" d="m343.9 192.3"/><path class="st7" d="m480.4 304.5c1-2.6 1.5-5.4 1.5-8.3.0-13.3-10.7-24-24-24s-24 10.7-24 24c0 2.9.5 5.7 1.5 8.3h45z"/><path class="st19" d="m403.4 305.8c-2-9.2-13.1-16.2-26.6-16.2-13.4.0-24.6 7-26.6 16.2h53.2z"/><ellipse class="st7" cx="271.7" cy="212.9" rx="14.6" ry="22.9"/><path class="st3" d="m315.9 281.6c-19.2.0-34.8-15.6-34.8-34.8v-42.5c0-6.6-5.4-12-12-12s-12 5.4-12 12v42.5c0 32.5 26.3 58.8 58.8 58.8h48.7v-24h-48.7z"/><path class="st20" d="m518.1 305.8h-112c-1.4.0-2.6-1.2-2.6-2.6s1.2-2.6 2.6-2.6h112.1c1.4.0 2.6 1.2 2.6 2.6s-1.2 2.6-2.7 2.6z"/><path class="st19" d="m518.1 303.2h-112c-1 0-1.8-.5-2.3-1.3-.2.4-.4.8-.4 1.3.0 1.4 1.2 2.6 2.6 2.6h112.1c1.4.0 2.6-1.2 2.6-2.6.0-.5-.1-.9-.4-1.3-.4.7-1.2 1.3-2.2 1.3z"/><path class="st19" d="m427.8 305.8h-21.7c-1.4.0-2.6-1.2-2.6-2.6s1.2-2.6 2.6-2.6h21.7c1.4.0 2.6 1.2 2.6 2.6s-1.1 2.6-2.6 2.6z"/><path class="st19" d="m510.2 300.6H502v-1.9c0-1 .8-1.9 1.9-1.9h4.4c1 0 1.9.8 1.9 1.9v1.9z"/><path class="st19" d="m500.2 300.6H492v-1.9c0-1 .8-1.9 1.9-1.9h4.4c1 0 1.9.8 1.9 1.9v1.9z"/><path class="st19" d="m490.2 300.6H482v-1.9c0-1 .8-1.9 1.9-1.9h4.4c1 0 1.9.8 1.9 1.9v1.9z"/><path class="st19" d="m480.2 300.6H472v-1.9c0-1 .8-1.9 1.9-1.9h4.4c1 0 1.9.8 1.9 1.9v1.9z"/><path class="st19" d="m470.2 300.6H462v-1.9c0-1 .8-1.9 1.9-1.9h4.4c1 0 1.9.8 1.9 1.9v1.9z"/><path class="st19" d="m460.2 300.6H452v-1.9c0-1 .8-1.9 1.9-1.9h4.4c1 0 1.9.8 1.9 1.9v1.9z"/><path class="st19" d="m450.2 300.6H442v-1.9c0-1 .8-1.9 1.9-1.9h4.4c1 0 1.9.8 1.9 1.9v1.9z"/><path class="st19" d="m440.2 300.6H432v-1.9c0-1 .8-1.9 1.9-1.9h4.4c1 0 1.9.8 1.9 1.9v1.9z"/><path class="st19" d="m430.2 300.6H422v-1.9c0-1 .8-1.9 1.9-1.9h4.4c1 0 1.9.8 1.9 1.9v1.9z"/><path class="st19" d="m420.2 300.6H412v-1.9c0-1 .8-1.9 1.9-1.9h4.4c1 0 1.9.8 1.9 1.9v1.9z"/><path class="st21" d="m406.1 305.8h21.7c1.4.0 2.6-1.2 2.6-2.6h-27c0 1.4 1.2 2.6 2.7 2.6z"/><path class="st22" d="m415.8 387h-79.1l-.6-42h98c6.6.0 11.9 5.3 11.9 11.9-.1 16.7-13.6 30.1-30.2 30.1z"/><path class="st7" d="m352.2 539.3 48.5-164c1.6-5.5 6.7-9.3 12.5-9.3 1.2.0 2.5.2 3.7.5 6.9 2 10.8 9.3 8.8 16.2l-48.5 164-25-7.4z"/><path class="st22" d="m392.5 525.9-40.3-11.9L403 342.3c3.3-11.1 15-17.5 26.1-14.2s17.5 15 14.2 26.1l-50.8 171.7z"/><path class="st23" d="m592.7 257.2h-168c-3.3.0-6-2.7-6-6l20.8-120c0-3.3 2.7-6 6-6h168c3.3.0 6 2.7 6 6l-20.8 120c0 3.3-2.6 6-6 6z"/><path class="st19" d="m602.7 257.2h-168c-3.3.0-6-2.7-6-6l20.8-120c0-3.3 2.7-6 6-6h168c3.3.0 6 2.7 6 6l-20.8 120c0 3.3-2.6 6-6 6z"/><path class="st23" d="m551.4 299.3-13.8-69.9H513c-3 0-5.3 2.8-4.7 5.7l12.2 61.7c.5 2.3-1.3 4.4-3.6 4.4h-15c-2.7.0-4.8 2.2-4.8 4.8h48.6c3.7.1 6.4-3.2 5.7-6.7z"/><path class="st19" d="m552.7 306.1h-25.5l-14.8-75c-.2-.9.5-1.6 1.4-1.6h28.7l14.2 71.9c.4 2.4-1.5 4.7-4 4.7z"/><path class="st19" d="M522.4 306.1H527.2L525.9 299.3H521z"/><path class="st23" d="m522.4 306.1c2.5.0 4.4-2.3 3.9-4.8l-.4-2h-5.4l1.9 6.8z"/><path class="st23" d="m544.4 193.6c-5.4.0-9.8-4.4-9.8-9.8.0-1.8.5-3.4 1.3-4.8-1.4-.4-2.9-.7-4.5-.7-8.5.0-15.3 6.9-15.3 15.3s6.9 15.3 15.3 15.3c8.5.0 15.3-6.9 15.3-15.3v-.3c-.8.2-1.5.3-2.3.3z"/><path class="st5" d="m428.1 364.1-82.4 21.7c-22.4 5.9-45.1-10-56-36.3l127.7-26.1c11.2-2.9 22.7 3.8 25.6 15 3 11.3-3.7 22.8-14.9 25.7z"/><path class="st5" d="m511 489.1-38.4 17.1-67.3-151.4c-4.7-10.6.1-23 10.7-27.7s23 .1 27.7 10.7l67.3 151.3z"/><path class="st4" d="m225.5 333.8h428.2c5.2.0 9.5-4.3 9.5-9.5v-9c0-5.2-4.3-9.5-9.5-9.5h-428.2c-5.2.0-9.5 4.3-9.5 9.5v9c0 5.2 4.2 9.5 9.5 9.5z"/><path class="st24" d="m573.6 537.8-85.1 15.5c-3.3.6-6.4-1.5-7.1-4.6l-.6-2.7c-1.7-7.8 3.3-15.7 11.5-17.8l62-15.7c12-3 24.1 2.5 26.3 12.6l.8 3.6c.9 4.1-2.6 8.2-7.8 9.1z"/><path class="st25" d="m576.9 530.1-95.1 17.3c-.2.0-.4.1-.6.1l.3 1.2c.7 3.2 3.8 5.2 7.1 4.6l85.1-15.5c5.2-.9 8.8-5 7.9-9.1l-.1-.3c-1.4.8-2.9 1.4-4.6 1.7z"/><path class="st26" d="m397.9 591.3-71.1-49.2c-2.7-1.9-3.5-5.6-1.7-8.3l1.5-2.4c4.3-6.7 13.5-8.8 20.7-4.4l54.9 32.8c10.7 6.4 15.3 18.9 9.7 27.5l-2 3.1c-2.2 3.5-7.7 3.9-12 .9z"/><path class="st23" d="m405.7 588.2-79.5-55c-.2-.1-.3-.3-.5-.4l-.6 1c-1.7 2.7-1 6.4 1.7 8.3l71.1 49.2c4.3 3 9.8 2.6 12-.9l.2-.3c-1.5-.3-3-1-4.4-1.9z"/><path class="st27" d="m201 305.8h-16.2c-8.2.0-14.9-6.7-14.9-14.9v-44.1h46v44.1c.1 8.2-6.6 14.9-14.9 14.9z"/><path class="st28" d="m175.1 252.8c-10.7.0-19.3 8.7-19.3 19.3s8.7 19.3 19.3 19.3 19.3-8.7 19.3-19.3-8.7-19.3-19.3-19.3zm0 34.4c-8.3.0-15.1-6.8-15.1-15.1s6.8-15.1 15.1-15.1 15.1 6.8 15.1 15.1c-.1 8.4-6.8 15.1-15.1 15.1z"/><path class="st29" d="m201 305.8h-16.2c-8.2.0-14.9-6.7-14.9-14.9v-44.1h46v44.1c.1 8.2-6.6 14.9-14.9 14.9z"/><path class="st30" d="m191.7 291.8c-4.6.0-8.3-3.7-8.3-8.3v-36.7h-13.5v44.1c0 8.2 6.7 14.9 14.9 14.9h16.2c7.9.0 14.4-6.2 14.9-14h-24.2z"/><path class="st3" d="m382.4 305.8c1-2.6 1.5-5.4 1.5-8.3.0-13.3-10.7-24-24-24s-24 10.7-24 24c0 2.9.5 5.7 1.5 8.3h45z"/><path class="st9" d="m253.3 192.1"/><circle class="st31" cx="187.9" cy="232.3" r="6.5"/><circle class="st31" cx="199.9" cy="209.6" r="9.7"/><circle class="st1" cx="105" cy="129.1" r="27.6"/></svg>