<?xml version="1.0" encoding="UTF-8"?>
<svg enable-background="new 0 0 547 456.5" version="1.1" viewBox="0 0 547 456.5" xml:space="preserve" xmlns="http://www.w3.org/2000/svg">
<style type="text/css">
	.st0{opacity:0.3;}
	.st1{fill:#2D2D2D;stroke:#2D2D2D;stroke-width:8;stroke-linecap:round;stroke-linejoin:round;stroke-miterlimit:10;}
	.st2{fill:none;stroke:#2D2D2D;stroke-width:8;stroke-linecap:round;stroke-linejoin:round;stroke-miterlimit:10;}
	.st3{fill:#00B3C6;}
	.st4{opacity:0.5;fill:#00B3C6;enable-background:new    ;}
	.st5{opacity:0.35;fill:#00B3C6;enable-background:new    ;}
	.st6{fill:none;stroke:#330E00;stroke-width:8;stroke-linecap:round;stroke-linejoin:round;stroke-miterlimit:10;}
	.st7{fill:#565656;}
	.st8{opacity:0.27;fill:#565656;enable-background:new    ;}
	.st9{fill:#FF1F1F;}
	.st10{fill:#FDD2A7;}
	.st11{opacity:0.5;fill:#FDD2A7;enable-background:new    ;}
	.st12{fill:#3BABFF;}
	.st13{fill:#330E00;}
	.st14{fill:none;stroke:#330E00;stroke-width:6;stroke-linecap:round;stroke-linejoin:round;stroke-miterlimit:10;}
	.st15{fill:#FFFFFF;}
	.st16{fill:#8C6239;}
	.st17{fill:#42210B;}
	.st18{fill:#603813;}
	.st19{fill:none;stroke:#330E00;stroke-width:8;stroke-linecap:round;stroke-linejoin:round;stroke-miterlimit:9.9999;}
	
		.st20{opacity:0.3;fill:#2D2D2D;stroke:#2D2D2D;stroke-width:8;stroke-linecap:round;stroke-linejoin:round;stroke-miterlimit:10;enable-background:new    ;}
	.st21{fill:#BD3F3A;}
	.st22{fill:#A33500;}
	.st23{fill:none;stroke:#330E00;stroke-width:8.0002;stroke-linecap:round;stroke-linejoin:round;stroke-miterlimit:10.0003;}
	.st24{fill:#6D2300;}
	.st25{fill:#FF9999;}
	.st26{fill:#FF0000;}
	.st27{fill:#FF3333;stroke:#330E00;stroke-width:8;stroke-linecap:round;stroke-linejoin:round;stroke-miterlimit:10;}
	.st28{fill:#BF0000;}
</style>
<g class="st0">
	
		<rect class="st1" transform="matrix(.3138 -.9495 .9495 .3138 -130.99 216.78)" x="-38.8" y="178" width="246.5" height="42"/>
	
		<rect class="st1" transform="matrix(.3138 -.9495 .9495 .3138 -285.27 265.7)" x="26.2" y="303.6" width="30" height="53.3"/>
	<path class="st1" d="m40.1 372.8-23.5-7.7c-4.6-1.5-7-6.4-5.5-11l5.4-16.3 39.9 13.2-5.4 16.3c-1.5 4.5-6.3 7-10.9 5.5z"/>
	<polygon class="st1" points="143.1 88.6 103.2 75.4 144 18.8"/>
</g>
<g class="st0">
	
		<rect class="st1" transform="matrix(.3138 -.9495 .9495 .3138 -169.6 391.53)" x="80.1" y="294.4" width="212" height="37.3"/>
	
		<rect class="st1" transform="matrix(.3138 -.9495 .9495 .3138 28.658 328.81)" x="170.3" y="120.6" width="143" height="48"/>
	<path class="st1" d="m281.9 82.5-35.4-11.7 0.7-2.2c3.2-9.8 13.8-15.1 23.6-11.9s15.1 13.8 11.9 23.6l-0.8 2.2z"/>
	<line class="st2" x1="221.2" x2="193.2" y1="86.1" y2="170.9"/>
	<line class="st2" x1="229.9" x2="216.7" y1="104.1" y2="99.7"/>
	<path class="st1" d="m166.3 418.2c-2.5 7.5-10.6 11.6-18.1 9.1s-11.6-10.6-9.1-18.1l27.2 9z"/>
</g>

	
		<rect class="st3" transform="matrix(.3138 -.9495 .9495 .3138 -161.62 377.94)" x="74.7" y="282.1" width="212" height="37.3"/>
	
		<rect class="st4" transform="matrix(.3138 -.9495 .9495 .3138 -157.39 391.28)" x="86" y="297.7" width="212" height="13.6"/>
	
		<rect class="st5" transform="matrix(.3138 -.9495 .9495 .3138 -165.84 364.59)" x="63.3" y="290.3" width="212" height="13.4"/>
	
		<rect class="st6" transform="matrix(.3138 -.9495 .9495 .3138 -161.62 377.94)" x="74.7" y="282.1" width="212" height="37.3"/>
	
		<rect class="st7" transform="matrix(.3138 -.9495 .9495 .3138 36.643 315.22)" x="164.9" y="108.3" width="143" height="48"/>
	
		<rect class="st8" transform="matrix(.3138 -.9495 .9495 .3138 30.684 296.4)" x="148.9" y="119.8" width="143" height="14.3"/>
	
		<rect class="st8" transform="matrix(.3138 -.9495 .9495 .3138 42.355 333.25)" x="180.2" y="130.2" width="143" height="14.3"/>
	
		<rect class="st6" transform="matrix(.3138 -.9495 .9495 .3138 36.643 315.22)" x="164.9" y="108.3" width="143" height="48"/>
	<path class="st3" d="m276.5 70.2-35.4-11.7 0.7-2.2c3.2-9.8 13.8-15.1 23.6-11.9s15.1 13.8 11.9 23.6l-0.8 2.2z"/>
	<path class="st6" d="m276.5 70.2-35.4-11.7 0.7-2.2c3.2-9.8 13.8-15.1 23.6-11.9s15.1 13.8 11.9 23.6l-0.8 2.2z"/>
	<line class="st6" x1="215.8" x2="187.8" y1="73.7" y2="158.5"/>
	<line class="st6" x1="224.5" x2="211.3" y1="91.8" y2="87.4"/>
	<path class="st7" d="m160.9 405.9c-2.5 7.5-10.6 11.6-18.1 9.1s-11.6-10.6-9.1-18.1l27.2 9z"/>
	<path class="st6" d="m160.9 405.9c-2.5 7.5-10.6 11.6-18.1 9.1s-11.6-10.6-9.1-18.1l27.2 9z"/>


	
		<rect class="st9" transform="matrix(.3138 -.9495 .9495 .3138 -121.48 200.25)" x="-45.5" y="163.2" width="246.5" height="42"/>
	
		<rect class="st6" transform="matrix(.3138 -.9495 .9495 .3138 -121.48 200.25)" x="-45.5" y="163.2" width="246.5" height="42"/>
	
		<rect class="st6" transform="matrix(.3138 -.9495 .9495 .3138 -121.48 200.25)" x="-45.5" y="176.9" width="246.5" height="14.6"/>
	
		<rect class="st10" transform="matrix(.3138 -.9495 .9495 .3138 -275.76 249.17)" x="19.5" y="288.7" width="30" height="53.3"/>
	
		<rect class="st11" transform="matrix(.3138 -.9495 .9495 .3138 -269.11 270.16)" x="37.4" y="313.4" width="30" height="15.7"/>
	
		<rect class="st10" transform="matrix(.3138 -.9495 .9495 .3138 -282.65 227.39)" x="1" y="302.1" width="30" height="14.3"/>
	
		<rect class="st6" transform="matrix(.3138 -.9495 .9495 .3138 -275.76 249.17)" x="19.5" y="288.7" width="30" height="53.3"/>
	<path class="st12" d="m33.4 358-23.4-7.8c-4.6-1.5-7-6.4-5.5-11l5.4-16.3 39.9 13.2-5.4 16.3c-1.6 4.6-6.4 7.1-11 5.6z"/>
	<path class="st6" d="m33.4 358-23.4-7.8c-4.6-1.5-7-6.4-5.5-11l5.4-16.3 39.9 13.2-5.4 16.3c-1.6 4.6-6.4 7.1-11 5.6z"/>
	<polygon class="st10" points="136.4 73.7 96.5 60.6 137.3 4"/>
	<polygon class="st6" points="136.4 73.7 96.5 60.6 137.3 4"/>
	<polygon class="st13" points="137.3 4 120 28 136.9 33.6"/>

<line class="st14" x1="173.9" x2="148.5" y1="305.9" y2="382.6"/>

	
		<rect class="st6" transform="matrix(.3138 -.9495 .9495 .3138 -161.62 377.94)" x="74.7" y="282.1" width="212" height="37.3"/>
	
		<rect class="st6" transform="matrix(.3138 -.9495 .9495 .3138 36.643 315.22)" x="164.9" y="108.3" width="143" height="48"/>
	<path class="st6" d="m276.5 70.2-35.4-11.7 0.7-2.2c3.2-9.8 13.8-15.1 23.6-11.9s15.1 13.8 11.9 23.6l-0.8 2.2z"/>
	<line class="st6" x1="215.8" x2="187.8" y1="73.7" y2="158.5"/>
	<line class="st6" x1="224.5" x2="211.3" y1="91.8" y2="87.4"/>
	<path class="st6" d="m160.9 405.9c-2.5 7.5-10.6 11.6-18.1 9.1s-11.6-10.6-9.1-18.1l27.2 9z"/>


	<g class="st0">
		<path class="st1" d="m289.3 445.1-35-48.7c-5.8-8-3.9-19.3 4.1-25.1l220.9-158.8c8-5.8 19.3-3.9 25.1 4.1l35 48.7c5.8 8 3.9 19.3-4.1 25.1l-220.9 158.7c-8 5.8-19.3 4-25.1-4z"/>
		<path class="st1" d="m319 425.6-57-18.8c-9.4-3.1-14.5-13.3-11.4-22.7l85.4-258.3c3.1-9.4 13.3-14.5 22.7-11.4l57 18.8c9.4 3.1 14.5 13.3 11.4 22.7l-85.3 258.3c-3.2 9.5-13.3 14.5-22.8 11.4z"/>
		<path class="st1" d="m307.3 437.7-49.6-33.7c-8.3-5.6-10.4-16.8-4.7-25l153.3-224.8c5.6-8.3 16.8-10.4 25-4.7l49.6 33.8c8.3 5.6 10.4 16.8 4.7 25l-153.2 224.8c-5.7 8.1-16.8 10.2-25.1 4.6z"/>
	</g>
	
		
			<path class="st15" d="m289.6 428.3-35-48.7c-5.8-8-3.9-19.3 4.1-25.1l220.9-158.8c8-5.8 19.3-3.9 25.1 4.1l35 48.7c5.8 8 3.9 19.3-4.1 25.1l-220.9 158.8c-8 5.8-19.3 3.9-25.1-4.1z"/>
			<path class="st6" d="m289.6 428.3-35-48.7c-5.8-8-3.9-19.3 4.1-25.1l220.9-158.8c8-5.8 19.3-3.9 25.1 4.1l35 48.7c5.8 8 3.9 19.3-4.1 25.1l-220.9 158.8c-8 5.8-19.3 3.9-25.1-4.1z"/>
			<path class="st6" d="m389.4 378.6-56.1-77.9 146.1-105.1c8-5.8 19.3-3.9 25.1 4.1l35 48.7c5.8 8 3.9 19.3-4.1 25.1l-146 105.1z"/>
			<path class="st16" d="m496.6 301.7-56.1-77.9 38.9-28c8-5.8 19.3-3.9 25.1 4.1l35 48.7c5.8 8 3.9 19.3-4.1 25.1l-38.8 28z"/>
			<path class="st6" d="m496.6 301.7-56.1-77.9 38.9-28c8-5.8 19.3-3.9 25.1 4.1l35 48.7c5.8 8 3.9 19.3-4.1 25.1l-38.8 28z"/>
			
				<rect class="st17" transform="matrix(.812 -.5837 .5837 .812 -114.01 286.81)" x="355.2" y="272.4" width="66" height="96"/>
			
				<rect class="st18" transform="matrix(.812 -.5837 .5837 .812 -81.442 310.85)" x="408.7" y="233.8" width="66" height="96"/>
			
				<rect class="st19" transform="matrix(.812 -.5837 .5837 .812 -81.442 310.85)" x="408.7" y="233.8" width="66" height="96"/>
			
				<rect class="st19" transform="matrix(.812 -.5837 .5837 .812 -114.01 286.81)" x="355.2" y="272.4" width="66" height="96"/>
			<circle class="st6" cx="276.4" cy="370.4" r="8"/>
		
		<path class="st20" d="m486.5 172.5-49.6-33.8c-8.3-5.6-19.4-3.5-25 4.7l-153.3 224.7c-5.6 8.3-3.5 19.4 4.7 25l50.9 13.7c0.4 0.3 4.6 1.8 5 2.1l4.6 1.5 7.6 1.7c8.1 1.7 16.3-1.6 20.9-8.5l139.1-206.1c5.5-8.2 3.3-19.4-4.9-25z"/>
		
			<path class="st15" d="m307.6 421-49.6-33.8c-8.3-5.6-10.4-16.8-4.7-25l153.3-224.8c5.6-8.3 16.8-10.4 25-4.7l49.6 33.8c8.3 5.6 10.4 16.8 4.7 25l-153.3 224.8c-5.6 8.1-16.7 10.3-25 4.7z"/>
			<path class="st6" d="m307.6 421-49.6-33.8c-8.3-5.6-10.4-16.8-4.7-25l153.3-224.8c5.6-8.3 16.8-10.4 25-4.7l49.6 33.8c8.3 5.6 10.4 16.8 4.7 25l-153.3 224.8c-5.6 8.1-16.7 10.3-25 4.7z"/>
			<path class="st21" d="m458.8 231.1-79.3-54.1 27-39.6c5.6-8.3 16.8-10.4 25-4.7l49.6 33.8c8.3 5.6 10.4 16.8 4.7 25l-27 39.6z"/>
			<path class="st6" d="m384.4 340.2-79.3-54.1 101.4-148.7c5.6-8.3 16.8-10.4 25-4.7l49.6 33.8c8.3 5.6 10.4 16.8 4.7 25l-101.4 148.7z"/>
			
				<rect class="st22" transform="matrix(.5633 -.8263 .8263 .5633 -16.226 432.08)" x="367.6" y="183.4" width="66" height="96"/>
			
				<rect class="st23" transform="matrix(.5633 -.8263 .8263 .5633 -16.226 432.08)" x="367.6" y="183.4" width="66" height="96"/>
			
				<rect class="st24" transform="matrix(.5633 -.8263 .8263 .5633 -77.574 425.17)" x="330.4" y="238" width="66" height="96"/>
			
				<rect class="st23" transform="matrix(.5633 -.8263 .8263 .5633 -77.574 425.17)" x="330.4" y="238" width="66" height="96"/>
			<circle class="st6" cx="275.4" cy="371.2" r="8"/>
		
		<path class="st20" d="m325.6 415.1-57-18.8c-9.4-3.1-14.5-13.3-11.4-22.7l85.3-258.3c3.1-9.4 13.3-14.5 22.7-11.4l57 18.8c9.4 3.1 14.5 13.3 11.4 22.7l-85.3 258.3c-3.1 9.5-13.2 14.6-22.7 11.4z"/>
		
			<path class="st15" d="m319.3 408.8-57-18.8c-9.4-3.1-14.5-13.3-11.4-22.7l85.3-258.3c3.1-9.4 13.3-14.5 22.7-11.4l57 18.8c9.4 3.1 14.5 13.3 11.4 22.7l-85.3 258.3c-3.1 9.5-13.2 14.6-22.7 11.4z"/>
			<path class="st6" d="m319.3 408.8-57-18.8c-9.4-3.1-14.5-13.3-11.4-22.7l85.3-258.3c3.1-9.4 13.3-14.5 22.7-11.4l57 18.8c9.4 3.1 14.5 13.3 11.4 22.7l-85.3 258.3c-3.1 9.5-13.2 14.6-22.7 11.4z"/>
			<path class="st6" d="m370.9 310-91.2-30.1 56.5-170.9c3.1-9.4 13.3-14.5 22.7-11.4l57 18.8c9.4 3.1 14.5 13.3 11.4 22.7l-56.4 170.9z"/>
			<path class="st25" d="m412.3 184.7-91.2-30.1 15.1-45.6c3.1-9.4 13.3-14.5 22.7-11.4l57 18.8c9.4 3.1 14.5 13.3 11.4 22.7l-15 45.6z"/>
			<path class="st6" d="m412.3 184.7-91.2-30.1 15.1-45.6c3.1-9.4 13.3-14.5 22.7-11.4l57 18.8c9.4 3.1 14.5 13.3 11.4 22.7l-15 45.6z"/>
			
				<rect class="st26" transform="matrix(.3138 -.9495 .9495 .3138 53.739 476.31)" x="323.4" y="153" width="66" height="96"/>
			
				<rect class="st27" transform="matrix(.3138 -.9495 .9495 .3138 53.739 476.31)" x="323.4" y="153" width="66" height="96"/>
			
				<rect class="st28" transform="matrix(.3138 -.9495 .9495 .3138 -19.974 499.66)" x="302.7" y="215.6" width="66" height="96"/>
			
				<rect class="st6" transform="matrix(.3138 -.9495 .9495 .3138 -19.974 499.66)" x="302.7" y="215.6" width="66" height="96"/>
			<circle class="st6" cx="274.7" cy="369.9" r="8"/>
			
				<path class="st13" d="m288 300.1-1.6-0.5-0.9 2.8-0.8-0.3 2.1-6.5 2.4 0.8c1.9 0.6 2.4 1.6 2 2.8-0.3 1.1-1.3 1.6-3.2 0.9zm0.2-0.5c1.3 0.4 2.1 0.2 2.3-0.7 0.3-0.9-0.1-1.5-1.5-2l-1.6-0.5-0.9 2.7 1.7 0.5z"/>
				<path class="st13" d="m296.5 304.3-3.6-1.2-1.2 1.3-0.9-0.3 5-5.4 0.9 0.3 0.8 7.3-0.9-0.3-0.1-1.7zm-0.5-4.6-2.8 3 3.1 1-0.3-4z"/>
				<path class="st13" d="m307.1 302.3-2.1 6.5-0.8-0.3-2.7-6.9-1.8 5.4-0.8-0.3 2.1-6.5 0.8 0.3 2.7 6.9 1.8-5.4 0.8 0.3z"/>
				<path class="st13" d="m308.5 302.8 5.2 1.7-0.2 0.6-2.2-0.7-1.9 5.9-0.8-0.3 1.9-5.9-2.3-0.8 0.3-0.5z"/>
				<path class="st13" d="m316.6 312.7c-2.3-0.8-3.5-2.6-2.9-4.6 0.6-1.9 2.8-2.8 5.1-2s3.5 2.6 2.9 4.6c-0.7 2-2.8 2.8-5.1 2zm0.2-0.5c1.8 0.6 3.5 0 4-1.7 0.6-1.7-0.4-3.2-2.2-3.8s-3.5 0-4 1.7c-0.6 1.7 0.5 3.2 2.2 3.8z"/>
				<path class="st13" d="m330.5 310.1-2.1 6.5-0.8-0.3-2.7-6.9-1.8 5.4-0.8-0.3 2.1-6.5 0.8 0.3 2.7 6.9 1.8-5.4 0.8 0.3z"/>
				<path class="st13" d="m336.4 312.7-3.4-1.1-0.8 2.4 3 1-0.2 0.6-3-1-0.8 2.5 3.4 1.1-0.2 0.6-4.2-1.4 2.1-6.5 4.2 1.4-0.1 0.4z"/>
			
			
				<path class="st13" d="m338.8 312.7 1.5 0.5-0.1 0.2-0.6-0.2-0.6 1.9-0.4-0.1 0.6-1.9-0.6-0.2 0.2-0.2z"/>
				<path class="st13" d="m340.7 313.3 0.3 0.1 0.2 2 1.3-1.5 0.3 0.1-0.7 2.1-0.3-0.1 0.5-1.6-1.3 1.4-0.2-0.1-0.2-1.9-0.5 1.6-0.3-0.1 0.7-2.1 0.2 0.1z"/>
			
		
	

</svg>
