<svg viewBox="0 0 524.5 697.6" xmlns="http://www.w3.org/2000/svg"><style>.st0{fill:#f29b1c}.st1{fill:#ffc417}.st2{fill:none;stroke:#441a36;stroke-width:6;stroke-linecap:round;stroke-linejoin:round;stroke-miterlimit:10}.st3{fill:#f1c6ad}.st4{fill:#e9b192}.st7{fill:#441a36}</style><circle class="st0" cx="378.7" cy="417.3" r="140.1"/><path class="st1" d="M368.4 516.3c77.4 0 140.1-62.7 140.1-140.1 0-4.4-.2-8.8-.6-13.1 7 16.7 10.9 35 10.9 54.2 0 77.4-62.7 140.1-140.1 140.1-73 0-132.9-55.8-139.5-127 21.2 50.4 71.1 85.9 129.2 85.9z"/><circle class="st2" cx="378.7" cy="417.3" r="140.1"/><circle class="st0" cx="143.1" cy="417.3" r="140.1"/><path class="st1" d="M153.4 516.3c-77.4 0-140.1-62.7-140.1-140.1 0-4.4.2-8.8.6-13.1-7 16.7-10.9 35-10.9 54.2 0 77.4 62.7 140.1 140.1 140.1 73 0 132.9-55.8 139.5-127-21.2 50.4-71 85.9-129.2 85.9z"/><circle class="st2" cx="143.1" cy="417.3" r="140.1"/><ellipse class="st3" cx="458.1" cy="318.5" rx="50.4" ry="57.6"/><path class="st4" d="M407.8 315.5c7.9 1.9 16.3 3 25.1 3 30.1 0 56.1-12.2 68.2-29.9-8.8-16.6-24.8-27.8-43.1-27.8-26.8 0-48.8 24.3-50.2 54.7z"/><ellipse class="st2" cx="458.1" cy="318.5" rx="50.4" ry="57.6"/><ellipse class="st3" cx="74.2" cy="318.5" rx="50.4" ry="57.6"/><path class="st4" d="M124.5 315.5c-7.9 1.9-22.9 17-31.7 18-38.5 4.7-56.5-8.7-69-15.1-10.1-5.1 3.7-21.9 7.3-29.9 8.8-16.6 24.8-27.8 43.1-27.8 27 .1 49 24.4 50.3 54.8z"/><ellipse class="st2" cx="74.2" cy="318.5" rx="50.4" ry="57.6"/><ellipse cx="266.2" cy="652.4" rx="258.3" ry="45.2" fill="#e4e8ec"/><path class="st3" d="M267.3 518.9c-109.2 0-197.7-88.5-197.7-197.6V185.6h395.3v135.6c0 109.2-88.5 197.7-197.6 197.7z"/><path class="st4" d="M72.1 332.5c123.7 43.6 250-27.1 278.5-108.4 9.8 50 70.1 86.8 114.4 72.5 0-25.9-.1-39.8-.1-39.8l-123.6-73.5-271.7 74.6s.1 67 2.5 74.6z"/><path class="st4" d="M267.3 494.3c-109.2 0-197.6-88.5-197.6-197.6v24.7c0 109.2 88.5 197.6 197.6 197.6 109.2 0 197.6-88.5 197.6-197.6v-24.7c0 109.1-88.5 197.6-197.6 197.6z"/><path class="st2" d="M267.3 518.9c-109.2 0-197.7-88.5-197.7-197.6V185.6h395.3v135.6c0 109.2-88.5 197.7-197.6 197.7z"/><path class="st1" d="M486.6 209c0-116.6-103-206-224.5-206-119 0-214.2 94.2-214.2 209.8-20.1 39.4-14.2 60-9.5 69.5 24.2 48.3 142.4 50.2 221 6.4 40.9-22.9 75.6-58.4 90.5-79.3 0 0 52.3 89.2 125.5 64.2 21.8-7.6 36.5-42.2 11.2-64.6z"/><path class="st0" d="M355.1 199.8c-14.9 21-221.5 148.9-300.2 45.6-6.4-8.4-5-12-6.9-32.6-20.1 39.4-14.2 60-9.5 69.5 24.2 48.3 142.4 50.2 221 6.4 40.9-22.9 75.6-58.4 90.5-79.3 0 0 52.3 89.2 125.5 64.2 15-5.1 31.7-31.2 20.2-53.2-21 47.9-124.4 9.4-140.6-20.6z"/><path class="st2" d="M486.6 209c0-116.6-103-206-224.5-206-119 0-214.2 94.2-214.2 209.8-20.1 39.4-14.2 60-9.5 69.5 24.2 48.3 142.4 50.2 221 6.4 40.9-22.9 75.6-58.4 90.5-79.3 0 0 52.3 89.2 125.5 64.2 21.8-7.6 36.5-42.2 11.2-64.6zM370.4 160.5c-4.1 19.2-16.1 51.2-50.3 82.5"/><ellipse cx="266.7" cy="442.8" rx="34.2" ry="17" fill="#fff"/><ellipse class="st2" cx="266.2" cy="443.4" rx="34.2" ry="17"/><ellipse class="st7" cx="348.3" cy="354.1" rx="16.5" ry="13.9"/><path class="st2" d="M332.4 321.9s26.4 13 50.8-.1"/><ellipse class="st7" cx="184.1" cy="354.1" rx="16.5" ry="13.9"/><path class="st2" d="M199.9 321.9s-26.4 13-50.8-.1M247.2 386.1c4.1 5.7 11.6 9.5 20.1 9.5 8.6 0 16-3.8 20.1-9.5"/></svg>