<?xml version="1.0" encoding="utf-8"?>
<!-- Generator: Adobe Illustrator 24.1.2, SVG Export Plug-In . SVG Version: 6.00 Build 0)  -->
<svg version="1.1" id="Layer_1" xmlns="http://www.w3.org/2000/svg" xmlns:xlink="http://www.w3.org/1999/xlink" x="0px" y="0px"
	 viewBox="0 0 679.5 558.1" style="enable-background:new 0 0 679.5 558.1;" xml:space="preserve">
<style type="text/css">
	.st0{opacity:0.15;}
	.st1{fill:none;stroke:#474747;stroke-width:6;stroke-linecap:round;stroke-linejoin:round;stroke-miterlimit:10;}
	.st2{fill:#77BA85;}
	.st3{fill:none;stroke:#474747;stroke-width:6.0001;stroke-linecap:round;stroke-linejoin:round;stroke-miterlimit:10.0002;}
	.st4{fill:#F6F9EA;}
	.st5{fill:#97CD78;}
	.st6{fill:none;stroke:#474747;stroke-width:5.9998;stroke-linecap:round;stroke-linejoin:round;stroke-miterlimit:9.9997;}
	
		.st7{opacity:0.32;fill:#474747;stroke:#474747;stroke-width:6;stroke-linecap:round;stroke-linejoin:round;stroke-miterlimit:10;enable-background:new    ;}
	
		.st8{opacity:0.15;fill:none;stroke:#474747;stroke-width:6;stroke-linecap:round;stroke-linejoin:round;stroke-miterlimit:10;enable-background:new    ;}
	.st9{fill:#F58870;}
	.st10{fill:#DD7868;}
	.st11{fill:#FFA399;}
	
		.st12{opacity:0.3;fill:#474747;stroke:#474747;stroke-width:6;stroke-linecap:round;stroke-linejoin:round;stroke-miterlimit:10;enable-background:new    ;}
	.st13{opacity:0.46;}
	.st14{fill:none;stroke:#474747;stroke-width:4;stroke-linecap:round;stroke-linejoin:round;stroke-dasharray:13.9577,9.9698;}
	.st15{fill:#F79765;}
	.st16{fill:#E27444;}
	.st17{fill:#FFB797;}
	.st18{fill:none;stroke:#474747;stroke-width:4;stroke-linecap:round;stroke-linejoin:round;stroke-dasharray:9.8393,11.8071;}
	.st19{fill:#8F6D5D;}
	.st20{opacity:0.6;}
	.st21{fill:#FFFCEE;}
	.st22{fill:#FDB740;}
	.st23{opacity:0.88;fill:#FFF3C0;enable-background:new    ;}
	.st24{fill:#F29E25;}
</style>
<g id="XMLID_1_" class="st0">
	<polyline id="XMLID_57_" class="st1" points="40.4,199.6 111.7,199.6 111.7,234.4 40.4,234.4 	"/>
	<line id="XMLID_59_" class="st1" x1="182.9" y1="234.4" x2="111.7" y2="234.4"/>
	<line id="XMLID_38_" class="st1" x1="111.7" y1="199.6" x2="139" y2="199.6"/>
	<rect id="XMLID_42_" x="76" y="234.4" class="st1" width="71.2" height="34.7"/>
	<polyline id="XMLID_52_" class="st1" points="51.5,269.3 111.7,269.3 111.7,304.1 88.6,304.1 	"/>
	<rect id="XMLID_54_" x="111.7" y="269.3" class="st1" width="71.2" height="34.7"/>
	<polyline id="XMLID_81_" class="st1" points="420.1,325.4 491.4,325.4 491.4,360.1 420.1,360.1 	"/>
	<line id="XMLID_80_" class="st1" x1="562.6" y1="360.1" x2="491.4" y2="360.1"/>
	<line id="XMLID_79_" class="st1" x1="491.4" y1="325.4" x2="518.7" y2="325.4"/>
	<rect id="XMLID_78_" x="455.8" y="360.1" class="st1" width="71.2" height="34.7"/>
	<polyline id="XMLID_77_" class="st1" points="431.3,395 491.4,395 491.4,429.7 468.4,429.7 	"/>
	<polyline id="XMLID_76_" class="st1" points="537.3,429.7 491.4,429.7 491.4,395 550.8,395 	"/>
	<rect id="XMLID_25_" x="187.9" y="69.6" class="st1" width="110.5" height="89.6"/>
	<polyline id="XMLID_62_" class="st1" points="203.2,138.4 223.4,109.1 244.4,135 	"/>
	<polyline id="XMLID_64_" class="st1" points="236.6,125.5 264.9,98.1 284.9,138.4 	"/>
	<path id="XMLID_63_" class="st1" d="M229.3,116.3c1.4-4.2,5.4-7.3,10.1-7.3c3.9,0,7.3,2.1,9.2,5.2"/>
	<path id="XMLID_24_" class="st1" d="M585.8,219.7H428.6c-5.8,0-10.5-4.7-10.5-10.5l0,0c0-5.8,4.7-10.5,10.5-10.5h157.2
		c5.8,0,10.5,4.7,10.5,10.5l0,0C596.3,215,591.6,219.7,585.8,219.7z"/>
	<polygon id="XMLID_23_" class="st1" points="531.7,198.7 485.7,198.7 476.2,139.8 541.3,139.8 	"/>
	<rect id="XMLID_46_" x="467.5" y="122.8" class="st1" width="82.9" height="17.1"/>
	<g id="XMLID_68_">
		<path id="XMLID_83_" class="st1" d="M519.4,122.8c-5.7,0-11.3,0-17,0c-4.7-16.2-8.7-33.3-8.2-50c0.6-8,9.2-14.7,16.7-14.7l0,0
			c7.5,0,16.1,6.7,16.7,14.7C528.1,89.5,524,106.5,519.4,122.8z"/>
	</g>
	<path id="XMLID_71_" class="st1" d="M528.1,70.8l11.8-19.5c2.2-3.8,7.4-4.6,10.7-1.7l0,0c3.3,2.9,3.2,8-0.2,10.8l-22.1,18.1"/>
	<path id="XMLID_75_" class="st1" d="M540,51.1l-5.6-17.4c-0.9-2.7,0.9-5.5,3.7-5.8l0,0c2.8-0.4,5.2,1.8,5.2,4.6l-0.4,14.1"/>
</g>
<g id="XMLID_20_">
	
		<rect id="XMLID_7_" x="249.3" y="217.2" transform="matrix(0.4382 -0.8989 0.8989 0.4382 -37.9098 504.2342)" class="st2" width="270.3" height="130.4"/>
	
		<rect id="XMLID_17_" x="249.3" y="217.2" transform="matrix(0.4382 -0.8989 0.8989 0.4382 -37.9098 504.2342)" class="st3" width="270.3" height="130.4"/>
	<path id="XMLID_16_" class="st4" d="M455.9,183.5l-37.5-18.3c-7.1,14.6-24.7,20.6-39.3,13.6l-92.5,189.6l90.4,44.1l92.5-189.6
		C454.8,215.7,448.7,198.1,455.9,183.5z"/>
	<path id="XMLID_12_" class="st1" d="M455.9,183.5l-37.5-18.3c-7.1,14.6-24.7,20.6-39.3,13.6l-92.5,189.6l90.4,44.1l92.5-189.6
		C454.8,215.7,448.7,198.1,455.9,183.5z"/>
	
		<rect id="XMLID_10_" x="264.2" y="232.1" transform="matrix(0.4382 -0.8989 0.8989 0.4382 -37.8619 504.2227)" class="st3" width="240.4" height="100.6"/>
	<circle id="XMLID_19_" class="st2" cx="393.4" cy="263.5" r="30.8"/>
	<circle id="XMLID_13_" class="st1" cx="393.4" cy="263.5" r="30.8"/>
</g>
<g id="XMLID_22_">
	
		<rect id="XMLID_33_" x="309.5" y="242.8" transform="matrix(0.7733 -0.634 0.634 0.7733 -94.5118 351.7196)" class="st5" width="270.3" height="130.4"/>
	
		<rect id="XMLID_32_" x="309.5" y="242.8" transform="matrix(0.7733 -0.634 0.634 0.7733 -94.5118 351.7196)" class="st6" width="270.3" height="130.4"/>
	<path id="XMLID_31_" class="st4" d="M550.8,247.9l-26.5-32.2c-12.6,10.3-31.1,8.4-41.4-4.1L319.8,345.3l63.7,77.7l163.1-133.8
		C536.3,276.8,538.2,258.3,550.8,247.9z"/>
	<path id="XMLID_30_" class="st1" d="M550.8,247.9l-26.5-32.2c-12.6,10.3-31.1,8.4-41.4-4.1L319.8,345.3l63.7,77.7l163.1-133.8
		C536.3,276.8,538.2,258.3,550.8,247.9z"/>
	
		<rect id="XMLID_29_" x="324.3" y="257.8" transform="matrix(0.7733 -0.634 0.634 0.7733 -94.551 351.6725)" class="st6" width="240.4" height="100.5"/>
	<circle id="XMLID_28_" class="st5" cx="460.6" cy="294.6" r="30.8"/>
	<circle id="XMLID_27_" class="st1" cx="460.6" cy="294.6" r="30.8"/>
	<path id="XMLID_48_" class="st7" d="M464,262.3c0-16-6-30.5-15.8-41.7L298.7,343.3l82.8,100.9l82.7-67.8L464,262.3L464,262.3z"/>
</g>
<line id="XMLID_9_" class="st8" x1="50.7" y1="523.6" x2="645" y2="523.6"/>
<g>
	<path id="XMLID_15_" class="st9" d="M401.2,523.6H212.7c-29.7,0-53.9-24.2-53.9-53.9V257.8c0-29.7,24.2-53.9,53.9-53.9h188.5
		c29.7,0,53.9,24.2,53.9,53.9v211.9C455.1,499.5,431,523.6,401.2,523.6z"/>
	<path id="XMLID_36_" class="st9" d="M401.2,523.6H212.7c-29.7,0-53.9-24.2-53.9-53.9V257.8c0-29.7,24.2-53.9,53.9-53.9h188.5
		c29.7,0,53.9,24.2,53.9,53.9v211.9C455.1,499.5,431,523.6,401.2,523.6z"/>
	<path id="XMLID_43_" class="st10" d="M401.2,512.7H212.7c-29.7,0-53.9-24.2-53.9-53.9v10.9c0,29.7,24.2,53.9,53.9,53.9h188.5
		c29.7,0,53.9-24.2,53.9-53.9v-10.9C455.1,488.5,431,512.7,401.2,512.7z"/>
	<path id="XMLID_40_" class="st11" d="M401.2,203.9H212.7c-29.7,0-53.9,22.2-53.9,49.5V265c0-27.3,24.2-49.5,53.9-49.5h188.5
		c29.7,0,53.9,22.2,53.9,49.5v-11.6C455.1,226.1,431,203.9,401.2,203.9z"/>
	<path id="XMLID_34_" class="st12" d="M338.4,335.5h-48.5c-8.9,0-16.2-7.3-16.2-16.2v-99.2c0-8.9,7.3-16.2,16.2-16.2h64.6v115.4
		C354.5,328.2,347.3,335.5,338.4,335.5z"/>
	<path id="XMLID_2_" class="st1" d="M401.2,523.6H212.7c-29.7,0-53.9-24.2-53.9-53.9V257.8c0-29.7,24.2-53.9,53.9-53.9h188.5
		c29.7,0,53.9,24.2,53.9,53.9v211.9C455.1,499.5,431,523.6,401.2,523.6z"/>
	<g id="XMLID_5_" class="st13">
		<path class="st14" d="M178.6,468.3V259.2c0-18.9,15.3-34.1,34.1-34.1h188.5c18.9,0,34.1,15.3,34.1,34.1v209.1
			c0,18.9-15.3,34.1-34.1,34.1H212.7C193.8,502.5,178.6,487.2,178.6,468.3z"/>
	</g>
	<path id="XMLID_18_" class="st15" d="M331.2,325.6h-48.5c-8.9,0-16.2-7.3-16.2-16.2V199.9c0-8.9,7.3-16.2,16.2-16.2h48.5
		c8.9,0,16.2,7.3,16.2,16.2v109.5C347.3,318.3,340.2,325.6,331.2,325.6z"/>
	<path id="XMLID_45_" class="st16" d="M331.2,318.1h-48.5c-8.9,0-16.2-7.3-16.2-16.2v7.5c0,8.9,7.3,16.2,16.2,16.2h48.5
		c8.9,0,16.2-7.3,16.2-16.2V302C347.3,310.9,340.2,318.1,331.2,318.1z"/>
	<path id="XMLID_44_" class="st17" d="M331.2,183.7h-48.5c-8.9,0-16.2,7.3-16.2,16.2v6.1c0-8.9,7.3-16.2,16.2-16.2h48.5
		c8.9,0,16.2,7.3,16.2,16.2v-6.1C347.3,191,340.2,183.7,331.2,183.7z"/>
	<path id="XMLID_4_" class="st1" d="M331.2,325.6h-48.5c-8.9,0-16.2-7.3-16.2-16.2V199.9c0-8.9,7.3-16.2,16.2-16.2h48.5
		c8.9,0,16.2,7.3,16.2,16.2v109.5C347.3,318.3,340.2,325.6,331.2,325.6z"/>
	<circle id="XMLID_35_" class="st12" cx="309.6" cy="281.6" r="20.8"/>
	<g id="XMLID_11_" class="st13">
		<path class="st18" d="M282.7,314.8c-3,0-5.4-2.4-5.4-5.4V199.9c0-3,2.4-5.4,5.4-5.4h48.5c3,0,5.4,2.4,5.4,5.4v109.5
			c0,3-2.4,5.4-5.4,5.4H282.7z"/>
	</g>
	<circle id="XMLID_21_" class="st19" cx="306.9" cy="276.2" r="20.8"/>
	<circle id="XMLID_6_" class="st1" cx="306.9" cy="276.2" r="20.8"/>
	<g id="XMLID_37_" class="st20">
		<path class="st21" d="M315.7,265.5c0.7,3.4-3.3,5.6-9.2,6.8c-6,1.2-11.4,1.3-12.1-1.5c-0.7-2.8,3.3-8.1,9.2-9.8
			C309.6,259.3,315,262.2,315.7,265.5z"/>
	</g>
</g>
<g id="XMLID_65_">
	<path id="XMLID_41_" class="st22" d="M606.7,523.6h-62.8c-3.6,0-6.6-3-6.6-6.6v-4.4c0-3.6,3-6.6,6.6-6.6h62.8c3.6,0,6.6,3,6.6,6.6
		v4.4C613.3,520.7,610.3,523.6,606.7,523.6z"/>
	<path id="XMLID_72_" class="st23" d="M606.7,507.9h-62.8c-3.6,0-6.6,3-6.6,6.6v2.5c0-3.6,3-6.6,6.6-6.6h62.8c3.6,0,6.6,3,6.6,6.6
		v-2.5C613.3,510.9,610.3,507.9,606.7,507.9z"/>
	<path id="XMLID_70_" class="st24" d="M606.7,521.6h-62.8c-3.6,0-6.6-3-6.6-6.6v-2.5c0,3.6,3,6.6,6.6,6.6h62.8c3.6,0,6.6-3,6.6-6.6
		v2.5C613.3,518.7,610.3,521.6,606.7,521.6z"/>
	<path id="XMLID_39_" class="st1" d="M606.7,523.6h-62.8c-3.6,0-6.6-3-6.6-6.6v-4.4c0-3.6,3-6.6,6.6-6.6h62.8c3.6,0,6.6,3,6.6,6.6
		v4.4C613.3,520.7,610.3,523.6,606.7,523.6z"/>
</g>
<g id="XMLID_73_">
	<path id="XMLID_90_" class="st22" d="M617.2,506.1h-62.8c-3.6,0-6.6-3-6.6-6.6v-4.4c0-3.6,3-6.6,6.6-6.6h62.8c3.6,0,6.6,3,6.6,6.6
		v4.4C623.7,503.3,620.8,506.1,617.2,506.1z"/>
	<path id="XMLID_89_" class="st23" d="M617.2,490.5h-62.8c-3.6,0-6.6,3-6.6,6.6v2.5c0-3.6,3-6.6,6.6-6.6h62.8c3.6,0,6.6,3,6.6,6.6
		v-2.5C623.7,493.5,620.8,490.5,617.2,490.5z"/>
	<path id="XMLID_88_" class="st24" d="M617.2,504.2h-62.8c-3.6,0-6.6-3-6.6-6.6v-2.5c0,3.6,3,6.6,6.6,6.6h62.8c3.6,0,6.6-3,6.6-6.6
		v2.5C623.7,501.3,620.8,504.2,617.2,504.2z"/>
	<path id="XMLID_74_" class="st1" d="M617.2,506.1h-62.8c-3.6,0-6.6-3-6.6-6.6v-4.4c0-3.6,3-6.6,6.6-6.6h62.8c3.6,0,6.6,3,6.6,6.6
		v4.4C623.7,503.3,620.8,506.1,617.2,506.1z"/>
</g>
<g id="XMLID_47_">
	<path id="XMLID_56_" class="st22" d="M606.7,488.7h-62.8c-3.6,0-6.6-3-6.6-6.6v-4.4c0-3.6,3-6.6,6.6-6.6h62.8c3.6,0,6.6,3,6.6,6.6
		v4.4C613.3,485.8,610.3,488.7,606.7,488.7z"/>
	<path id="XMLID_53_" class="st23" d="M606.7,473.2h-62.8c-3.6,0-6.6,3-6.6,6.6v2.5c0-3.6,3-6.6,6.6-6.6h62.8c3.6,0,6.6,3,6.6,6.6
		v-2.5C613.3,476.1,610.3,473.2,606.7,473.2z"/>
	<path id="XMLID_50_" class="st24" d="M606.7,486.8h-62.8c-3.6,0-6.6-3-6.6-6.6v-2.5c0,3.6,3,6.6,6.6,6.6h62.8c3.6,0,6.6-3,6.6-6.6
		v2.5C613.3,483.9,610.3,486.8,606.7,486.8z"/>
	<path id="XMLID_49_" class="st1" d="M606.7,488.7h-62.8c-3.6,0-6.6-3-6.6-6.6v-4.4c0-3.6,3-6.6,6.6-6.6h62.8c3.6,0,6.6,3,6.6,6.6
		v4.4C613.3,485.8,610.3,488.7,606.7,488.7z"/>
</g>
<g id="XMLID_58_">
	<path id="XMLID_67_" class="st22" d="M535.6,475.6l-42.9,45.9c-2.4,2.6-6.6,2.8-9.2,0.3l-3.1-3c-2.6-2.4-2.8-6.6-0.3-9.2l42.9-45.9
		c2.4-2.6,6.6-2.8,9.2-0.3l3.1,3C537.8,468.9,538,472.9,535.6,475.6z"/>
	<path id="XMLID_66_" class="st23" d="M524.2,464.9l-42.9,45.9c-2.4,2.6-2.3,6.7,0.3,9.2l1.9,1.7c-2.6-2.4-2.8-6.6-0.3-9.2
		l42.9-45.9c2.4-2.6,6.6-2.8,9.2-0.3l-1.9-1.7C530.8,462.1,526.6,462.3,524.2,464.9z"/>
	<path id="XMLID_61_" class="st24" d="M534.2,474.3l-42.9,45.9c-2.4,2.6-6.6,2.8-9.2,0.3l-1.9-1.7c2.6,2.4,6.7,2.3,9.2-0.3
		l42.9-45.9c2.4-2.6,2.3-6.7-0.3-9.2l1.9,1.7C536.4,467.5,536.6,471.7,534.2,474.3z"/>
	<path id="XMLID_60_" class="st1" d="M535.6,475.6l-42.9,45.9c-2.4,2.6-6.6,2.8-9.2,0.3l-3.1-3c-2.6-2.4-2.8-6.6-0.3-9.2l42.9-45.9
		c2.4-2.6,6.6-2.8,9.2-0.3l3.1,3C537.8,468.9,538,472.9,535.6,475.6z"/>
</g>
</svg>
