<svg id="Layer_1" xmlns="http://www.w3.org/2000/svg" xmlns:xlink="http://www.w3.org/1999/xlink" viewBox="0 0 679.5 558.1" style="enable-background:new 0 0 679.5 558.1"><style>.st0{opacity:.15}.st1{fill:none;stroke:#474747;stroke-width:6;stroke-linecap:round;stroke-linejoin:round;stroke-miterlimit:10}.st2{fill:#77ba85}.st3{fill:none;stroke:#474747;stroke-width:6.0001;stroke-linecap:round;stroke-linejoin:round;stroke-miterlimit:10.0002}.st4{fill:#f6f9ea}.st5{fill:#97cd78}.st6{fill:none;stroke:#474747;stroke-width:5.9998;stroke-linecap:round;stroke-linejoin:round;stroke-miterlimit:9.9997}.st7{opacity:.32;fill:#474747;stroke:#474747;stroke-width:6;stroke-linecap:round;stroke-linejoin:round;stroke-miterlimit:10;enable-background:new}.st8{opacity:.15;fill:none;stroke:#474747;stroke-width:6;stroke-linecap:round;stroke-linejoin:round;stroke-miterlimit:10;enable-background:new}.st9{fill:#f58870}.st10{fill:#dd7868}.st11{fill:#ffa399}.st12{opacity:.3;fill:#474747;stroke:#474747;stroke-width:6;stroke-linecap:round;stroke-linejoin:round;stroke-miterlimit:10;enable-background:new}.st13{opacity:.46}.st14{fill:none;stroke:#474747;stroke-width:4;stroke-linecap:round;stroke-linejoin:round;stroke-dasharray:13.9577,9.9698}.st15{fill:#f79765}.st16{fill:#e27444}.st17{fill:#ffb797}.st18{fill:none;stroke:#474747;stroke-width:4;stroke-linecap:round;stroke-linejoin:round;stroke-dasharray:9.8393,11.8071}.st19{fill:#8f6d5d}.st20{opacity:.6}.st21{fill:#fffcee}.st22{fill:#fdb740}.st23{opacity:.88;fill:#fff3c0;enable-background:new}.st24{fill:#f29e25}</style><g id="XMLID_1_" class="st0"><path id="XMLID_57_" class="st1" d="M40.4 199.6H111.7V234.4H40.4"/><path id="XMLID_59_" class="st1" d="M182.9 234.4H111.7z"/><path id="XMLID_38_" class="st1" d="M111.7 199.6H139z"/><path id="XMLID_42_" class="st1" d="M76 234.4h71.2v34.7H76z"/><path id="XMLID_52_" class="st1" d="M51.5 269.3h60.2V304.1H88.6"/><path id="XMLID_54_" class="st1" d="M111.7 269.3h71.2V304H111.7z"/><path id="XMLID_81_" class="st1" d="M420.1 325.4H491.4V360.1H420.1"/><path id="XMLID_80_" class="st1" d="M562.6 360.1H491.4z"/><path id="XMLID_79_" class="st1" d="M491.4 325.4H518.7z"/><path id="XMLID_78_" class="st1" d="M455.8 360.1H527v34.7H455.8z"/><path id="XMLID_77_" class="st1" d="M431.3 395H491.4V429.7h-23"/><path id="XMLID_76_" class="st1" d="M537.3 429.7H491.4V395H550.8"/><path id="XMLID_25_" class="st1" d="M187.9 69.6h110.5v89.6H187.9z"/><path id="XMLID_62_" class="st1" d="M203.2 138.4 223.4 109.1 244.4 135"/><path id="XMLID_64_" class="st1" d="M236.6 125.5 264.9 98.1 284.9 138.4"/><path id="XMLID_63_" class="st1" d="M229.3 116.3c1.4-4.2 5.4-7.3 10.1-7.3 3.9.0 7.3 2.1 9.2 5.2"/><path id="XMLID_24_" class="st1" d="M585.8 219.7H428.6c-5.8.0-10.5-4.7-10.5-10.5v0c0-5.8 4.7-10.5 10.5-10.5h157.2c5.8.0 10.5 4.7 10.5 10.5v0C596.3 215 591.6 219.7 585.8 219.7z"/><path id="XMLID_23_" class="st1" d="M531.7 198.7H485.7L476.2 139.8H541.3z"/><path id="XMLID_46_" class="st1" d="M467.5 122.8h82.9v17.1H467.5z"/><g id="XMLID_68_"><path id="XMLID_83_" class="st1" d="M519.4 122.8c-5.7.0-11.3.0-17 0-4.7-16.2-8.7-33.3-8.2-50 .6-8 9.2-14.7 16.7-14.7v0c7.5.0 16.1 6.7 16.7 14.7C528.1 89.5 524 106.5 519.4 122.8z"/></g><path id="XMLID_71_" class="st1" d="M528.1 70.8l11.8-19.5c2.2-3.8 7.4-4.6 10.7-1.7v0c3.3 2.9 3.2 8-.2 10.8l-22.1 18.1"/><path id="XMLID_75_" class="st1" d="M540 51.1l-5.6-17.4c-.9-2.7.9-5.5 3.7-5.8v0c2.8-.4 5.2 1.8 5.2 4.6l-.4 14.1"/></g><g id="XMLID_20_"><path id="XMLID_7_" transform="matrix(0.4382 -0.8989 0.8989 0.4382 -37.9098 504.2342)" class="st2" d="M249.3 217.2h270.3v130.4H249.3z"/><path id="XMLID_17_" transform="matrix(0.4382 -0.8989 0.8989 0.4382 -37.9098 504.2342)" class="st3" d="M249.3 217.2h270.3v130.4H249.3z"/><path id="XMLID_16_" class="st4" d="M455.9 183.5l-37.5-18.3c-7.1 14.6-24.7 20.6-39.3 13.6l-92.5 189.6 90.4 44.1 92.5-189.6C454.8 215.7 448.7 198.1 455.9 183.5z"/><path id="XMLID_12_" class="st1" d="M455.9 183.5l-37.5-18.3c-7.1 14.6-24.7 20.6-39.3 13.6l-92.5 189.6 90.4 44.1 92.5-189.6C454.8 215.7 448.7 198.1 455.9 183.5z"/><path id="XMLID_10_" transform="matrix(0.4382 -0.8989 0.8989 0.4382 -37.8619 504.2227)" class="st3" d="M264.2 232.1h240.4v100.6H264.2z"/><circle id="XMLID_19_" class="st2" cx="393.4" cy="263.5" r="30.8"/><circle id="XMLID_13_" class="st1" cx="393.4" cy="263.5" r="30.8"/></g><g id="XMLID_22_"><path id="XMLID_33_" transform="matrix(0.7733 -0.634 0.634 0.7733 -94.5118 351.7196)" class="st5" d="M309.5 242.8h270.3v130.4H309.5z"/><path id="XMLID_32_" transform="matrix(0.7733 -0.634 0.634 0.7733 -94.5118 351.7196)" class="st6" d="M309.5 242.8h270.3v130.4H309.5z"/><path id="XMLID_31_" class="st4" d="M550.8 247.9l-26.5-32.2c-12.6 10.3-31.1 8.4-41.4-4.1L319.8 345.3l63.7 77.7 163.1-133.8C536.3 276.8 538.2 258.3 550.8 247.9z"/><path id="XMLID_30_" class="st1" d="M550.8 247.9l-26.5-32.2c-12.6 10.3-31.1 8.4-41.4-4.1L319.8 345.3l63.7 77.7 163.1-133.8C536.3 276.8 538.2 258.3 550.8 247.9z"/><path id="XMLID_29_" transform="matrix(0.7733 -0.634 0.634 0.7733 -94.551 351.6725)" class="st6" d="M324.3 257.8h240.4v100.5H324.3z"/><circle id="XMLID_28_" class="st5" cx="460.6" cy="294.6" r="30.8"/><circle id="XMLID_27_" class="st1" cx="460.6" cy="294.6" r="30.8"/><path id="XMLID_48_" class="st7" d="M464 262.3c0-16-6-30.5-15.8-41.7L298.7 343.3l82.8 100.9 82.7-67.8L464 262.3v0z"/></g><path id="XMLID_9_" class="st8" d="M50.7 523.6H645z"/><g><path id="XMLID_15_" class="st9" d="M401.2 523.6H212.7c-29.7.0-53.9-24.2-53.9-53.9V257.8c0-29.7 24.2-53.9 53.9-53.9h188.5c29.7.0 53.9 24.2 53.9 53.9v211.9C455.1 499.5 431 523.6 401.2 523.6z"/><path id="XMLID_36_" class="st9" d="M401.2 523.6H212.7c-29.7.0-53.9-24.2-53.9-53.9V257.8c0-29.7 24.2-53.9 53.9-53.9h188.5c29.7.0 53.9 24.2 53.9 53.9v211.9C455.1 499.5 431 523.6 401.2 523.6z"/><path id="XMLID_43_" class="st10" d="M401.2 512.7H212.7c-29.7.0-53.9-24.2-53.9-53.9v10.9c0 29.7 24.2 53.9 53.9 53.9h188.5c29.7.0 53.9-24.2 53.9-53.9v-10.9C455.1 488.5 431 512.7 401.2 512.7z"/><path id="XMLID_40_" class="st11" d="M401.2 203.9H212.7c-29.7.0-53.9 22.2-53.9 49.5V265c0-27.3 24.2-49.5 53.9-49.5h188.5c29.7.0 53.9 22.2 53.9 49.5v-11.6C455.1 226.1 431 203.9 401.2 203.9z"/><path id="XMLID_34_" class="st12" d="M338.4 335.5h-48.5c-8.9.0-16.2-7.3-16.2-16.2v-99.2c0-8.9 7.3-16.2 16.2-16.2h64.6v115.4C354.5 328.2 347.3 335.5 338.4 335.5z"/><path id="XMLID_2_" class="st1" d="M401.2 523.6H212.7c-29.7.0-53.9-24.2-53.9-53.9V257.8c0-29.7 24.2-53.9 53.9-53.9h188.5c29.7.0 53.9 24.2 53.9 53.9v211.9C455.1 499.5 431 523.6 401.2 523.6z"/><g id="XMLID_5_" class="st13"><path class="st14" d="M178.6 468.3V259.2c0-18.9 15.3-34.1 34.1-34.1h188.5c18.9.0 34.1 15.3 34.1 34.1v209.1c0 18.9-15.3 34.1-34.1 34.1H212.7C193.8 502.5 178.6 487.2 178.6 468.3z"/></g><path id="XMLID_18_" class="st15" d="M331.2 325.6h-48.5c-8.9.0-16.2-7.3-16.2-16.2V199.9c0-8.9 7.3-16.2 16.2-16.2h48.5c8.9.0 16.2 7.3 16.2 16.2v109.5C347.3 318.3 340.2 325.6 331.2 325.6z"/><path id="XMLID_45_" class="st16" d="M331.2 318.1h-48.5c-8.9.0-16.2-7.3-16.2-16.2v7.5c0 8.9 7.3 16.2 16.2 16.2h48.5c8.9.0 16.2-7.3 16.2-16.2V302C347.3 310.9 340.2 318.1 331.2 318.1z"/><path id="XMLID_44_" class="st17" d="M331.2 183.7h-48.5c-8.9.0-16.2 7.3-16.2 16.2v6.1c0-8.9 7.3-16.2 16.2-16.2h48.5c8.9.0 16.2 7.3 16.2 16.2v-6.1C347.3 191 340.2 183.7 331.2 183.7z"/><path id="XMLID_4_" class="st1" d="M331.2 325.6h-48.5c-8.9.0-16.2-7.3-16.2-16.2V199.9c0-8.9 7.3-16.2 16.2-16.2h48.5c8.9.0 16.2 7.3 16.2 16.2v109.5C347.3 318.3 340.2 325.6 331.2 325.6z"/><circle id="XMLID_35_" class="st12" cx="309.6" cy="281.6" r="20.8"/><g id="XMLID_11_" class="st13"><path class="st18" d="M282.7 314.8c-3 0-5.4-2.4-5.4-5.4V199.9c0-3 2.4-5.4 5.4-5.4h48.5c3 0 5.4 2.4 5.4 5.4v109.5c0 3-2.4 5.4-5.4 5.4H282.7z"/></g><circle id="XMLID_21_" class="st19" cx="306.9" cy="276.2" r="20.8"/><circle id="XMLID_6_" class="st1" cx="306.9" cy="276.2" r="20.8"/><g id="XMLID_37_" class="st20"><path class="st21" d="M315.7 265.5c.7 3.4-3.3 5.6-9.2 6.8-6 1.2-11.4 1.3-12.1-1.5-.7-2.8 3.3-8.1 9.2-9.8C309.6 259.3 315 262.2 315.7 265.5z"/></g></g><g id="XMLID_65_"><path id="XMLID_41_" class="st22" d="M606.7 523.6h-62.8c-3.6.0-6.6-3-6.6-6.6v-4.4c0-3.6 3-6.6 6.6-6.6h62.8c3.6.0 6.6 3 6.6 6.6v4.4C613.3 520.7 610.3 523.6 606.7 523.6z"/><path id="XMLID_72_" class="st23" d="M606.7 507.9h-62.8c-3.6.0-6.6 3-6.6 6.6v2.5c0-3.6 3-6.6 6.6-6.6h62.8c3.6.0 6.6 3 6.6 6.6v-2.5C613.3 510.9 610.3 507.9 606.7 507.9z"/><path id="XMLID_70_" class="st24" d="M606.7 521.6h-62.8c-3.6.0-6.6-3-6.6-6.6v-2.5c0 3.6 3 6.6 6.6 6.6h62.8c3.6.0 6.6-3 6.6-6.6v2.5C613.3 518.7 610.3 521.6 606.7 521.6z"/><path id="XMLID_39_" class="st1" d="M606.7 523.6h-62.8c-3.6.0-6.6-3-6.6-6.6v-4.4c0-3.6 3-6.6 6.6-6.6h62.8c3.6.0 6.6 3 6.6 6.6v4.4C613.3 520.7 610.3 523.6 606.7 523.6z"/></g><g id="XMLID_73_"><path id="XMLID_90_" class="st22" d="M617.2 506.1h-62.8c-3.6.0-6.6-3-6.6-6.6v-4.4c0-3.6 3-6.6 6.6-6.6h62.8c3.6.0 6.6 3 6.6 6.6v4.4C623.7 503.3 620.8 506.1 617.2 506.1z"/><path id="XMLID_89_" class="st23" d="M617.2 490.5h-62.8c-3.6.0-6.6 3-6.6 6.6v2.5c0-3.6 3-6.6 6.6-6.6h62.8c3.6.0 6.6 3 6.6 6.6v-2.5C623.7 493.5 620.8 490.5 617.2 490.5z"/><path id="XMLID_88_" class="st24" d="M617.2 504.2h-62.8c-3.6.0-6.6-3-6.6-6.6v-2.5c0 3.6 3 6.6 6.6 6.6h62.8c3.6.0 6.6-3 6.6-6.6v2.5C623.7 501.3 620.8 504.2 617.2 504.2z"/><path id="XMLID_74_" class="st1" d="M617.2 506.1h-62.8c-3.6.0-6.6-3-6.6-6.6v-4.4c0-3.6 3-6.6 6.6-6.6h62.8c3.6.0 6.6 3 6.6 6.6v4.4C623.7 503.3 620.8 506.1 617.2 506.1z"/></g><g id="XMLID_47_"><path id="XMLID_56_" class="st22" d="M606.7 488.7h-62.8c-3.6.0-6.6-3-6.6-6.6v-4.4c0-3.6 3-6.6 6.6-6.6h62.8c3.6.0 6.6 3 6.6 6.6v4.4C613.3 485.8 610.3 488.7 606.7 488.7z"/><path id="XMLID_53_" class="st23" d="M606.7 473.2h-62.8c-3.6.0-6.6 3-6.6 6.6v2.5c0-3.6 3-6.6 6.6-6.6h62.8c3.6.0 6.6 3 6.6 6.6v-2.5C613.3 476.1 610.3 473.2 606.7 473.2z"/><path id="XMLID_50_" class="st24" d="M606.7 486.8h-62.8c-3.6.0-6.6-3-6.6-6.6v-2.5c0 3.6 3 6.6 6.6 6.6h62.8c3.6.0 6.6-3 6.6-6.6v2.5C613.3 483.9 610.3 486.8 606.7 486.8z"/><path id="XMLID_49_" class="st1" d="M606.7 488.7h-62.8c-3.6.0-6.6-3-6.6-6.6v-4.4c0-3.6 3-6.6 6.6-6.6h62.8c3.6.0 6.6 3 6.6 6.6v4.4C613.3 485.8 610.3 488.7 606.7 488.7z"/></g><g id="XMLID_58_"><path id="XMLID_67_" class="st22" d="M535.6 475.6l-42.9 45.9c-2.4 2.6-6.6 2.8-9.2.3l-3.1-3c-2.6-2.4-2.8-6.6-.3-9.2l42.9-45.9c2.4-2.6 6.6-2.8 9.2-.3l3.1 3C537.8 468.9 538 472.9 535.6 475.6z"/><path id="XMLID_66_" class="st23" d="M524.2 464.9l-42.9 45.9c-2.4 2.6-2.3 6.7.3 9.2l1.9 1.7c-2.6-2.4-2.8-6.6-.3-9.2l42.9-45.9c2.4-2.6 6.6-2.8 9.2-.3l-1.9-1.7C530.8 462.1 526.6 462.3 524.2 464.9z"/><path id="XMLID_61_" class="st24" d="M534.2 474.3l-42.9 45.9c-2.4 2.6-6.6 2.8-9.2.3l-1.9-1.7c2.6 2.4 6.7 2.3 9.2-.3l42.9-45.9c2.4-2.6 2.3-6.7-.3-9.2l1.9 1.7C536.4 467.5 536.6 471.7 534.2 474.3z"/><path id="XMLID_60_" class="st1" d="M535.6 475.6l-42.9 45.9c-2.4 2.6-6.6 2.8-9.2.3l-3.1-3c-2.6-2.4-2.8-6.6-.3-9.2l42.9-45.9c2.4-2.6 6.6-2.8 9.2-.3l3.1 3C537.8 468.9 538 472.9 535.6 475.6z"/></g></svg>